<svg width="17.855164" height="17.855347" viewBox="0 0 17.8552 17.8553" fill="none" xmlns="http://www.w3.org/2000/svg" xmlns:xlink="http://www.w3.org/1999/xlink">
	<desc>
			Created with Pixso.
	</desc>
	<defs/>
	<path id="Vector" d="M13.02 0L4.83 0C2.16 0 0 2.16 0 4.83L0 13.02C0 15.68 2.16 17.85 4.83 17.85L13.02 17.85C15.68 17.85 17.85 15.68 17.85 13.02L17.85 4.83C17.85 2.16 15.68 0 13.02 0ZM8.92 13.8C6.23 13.8 4.04 11.61 4.04 8.92C4.04 6.23 6.23 4.04 8.92 4.04C11.61 4.04 13.8 6.23 13.8 8.92C13.8 11.61 11.61 13.8 8.92 13.8ZM13.92 5.19C13.13 5.19 12.48 4.54 12.48 3.75C12.48 2.95 13.13 2.31 13.92 2.31C14.72 2.31 15.36 2.95 15.36 3.75C15.36 4.54 14.72 5.19 13.92 5.19Z" fill="#FFFFFF" fill-opacity="1.000000" fill-rule="nonzero"/>
	<path id="Vector" d="M8.92 5.09C6.81 5.09 5.09 6.81 5.09 8.92C5.09 11.04 6.81 12.76 8.92 12.76C11.04 12.76 12.76 11.04 12.76 8.92C12.76 6.81 11.04 5.09 8.92 5.09Z" fill="#FFFFFF" fill-opacity="1.000000" fill-rule="nonzero"/>
	<path id="Vector" d="M13.92 3.35C13.7 3.35 13.53 3.53 13.53 3.75C13.53 3.97 13.7 4.14 13.92 4.14C14.14 4.14 14.32 3.97 14.32 3.75C14.32 3.53 14.14 3.35 13.92 3.35Z" fill="#FFFFFF" fill-opacity="1.000000" fill-rule="nonzero"/>
</svg>
