<svg width="53.000427" height="19.459229" viewBox="0 0 53.0004 19.4592" fill="none" xmlns="http://www.w3.org/2000/svg" xmlns:xlink="http://www.w3.org/1999/xlink">
	<desc>
			Created with Pixso.
	</desc>
	<defs/>
	<path id="Union" d="M19.3748 7.823L19.3748 16.9956C19.4681 17.8167 20.2482 19.459 22.6221 19.459L26.0374 19.459L26.0374 17.6113L22.6221 17.6113C22.1368 17.6113 21.1664 17.3425 21.1664 16.2676L21.1664 7.823L25.1973 7.823L25.1973 5.80737L21.1664 5.80737L21.1664 2.43848L19.3748 2.43848L19.3748 5.80737L16.911 5.80737L16.911 7.823L19.3748 7.823Z" clip-rule="evenodd" fill="#000000" fill-opacity="1.000000" fill-rule="evenodd"/>
	<path id="Union" d="M46.3378 7.823L46.3378 16.9956C46.4311 17.8167 47.2112 19.459 49.5851 19.459L53.0004 19.459L53.0004 17.6113L49.5851 17.6113C49.0999 17.6113 48.1294 17.3425 48.1294 16.2676L48.1294 7.823L52.1603 7.823L52.1603 5.80737L48.1294 5.80737L48.1294 2.43848L46.3378 2.43848L46.3378 5.80737L43.874 5.80737L43.874 7.823L46.3378 7.823Z" clip-rule="evenodd" fill="#000000" fill-opacity="1.000000" fill-rule="evenodd"/>
	<path id="Union" d="M0 0L2.28314 0L7.55792 9.21118L12.9364 0L15.2733 0L8.58136 11.4944L6.29828 11.4944L0 0ZM8.58258 11.4944L6.30334 11.4944L6.30334 19.4592L8.58258 19.4592L8.58258 11.4944Z" clip-rule="evenodd" fill="#38BFF2" fill-opacity="1.000000" fill-rule="evenodd"/>
	<path id="Union" d="M26.963 0L29.2462 0L34.5209 9.21118L39.8994 0L42.2363 0L35.5444 11.4944L33.2613 11.4944L26.963 0ZM35.5457 11.4944L33.2664 11.4944L33.2664 19.4592L35.5457 19.4592L35.5457 11.4944Z" clip-rule="evenodd" fill="#F15525" fill-opacity="1.000000" fill-rule="evenodd"/>
</svg>
