<svg width="407.581482" height="354.021240" viewBox="0 0 407.581 354.021" fill="none" xmlns="http://www.w3.org/2000/svg" xmlns:xlink="http://www.w3.org/1999/xlink">
	<desc>
			Created with Pixso.
	</desc>
	<defs/>
	<path id="path54" d="M319.09 231.09C312.63 236.45 314.77 267.76 294.81 254.28C274.86 240.8 308.9 232.8 306.95 225.16C304.22 214.45 259.22 227.31 266.77 206.82C274.32 186.32 301.23 217.14 308.3 209.51C314.8 202.5 282.41 177.15 297.51 172.84C312.61 168.52 309.36 205.2 319.09 205.2C326.65 205.2 325.24 170.14 339.15 182.55C353.07 194.95 322.66 207.17 326.64 214.87C329.66 220.72 353.6 206.28 352.53 219.76C351.45 233.25 325.87 225.45 319.09 231.09Z" fill="#38BFF2" fill-opacity="1.000000" fill-rule="nonzero"/>
	<path id="path58" d="M314.77 215.05C314.77 215.05 329.33 232.71 327.72 280.71" stroke="#1A2E35" stroke-opacity="1.000000" stroke-width="1.333333" stroke-linejoin="round" stroke-linecap="round"/>
	<path id="path62" d="M286.4 240.03C288.98 234.84 310.37 231.29 298.13 220.02C285.89 208.75 285.93 232.91 280.48 232.81C272.85 232.69 274.34 200.38 261.76 208.72C249.18 217.06 274.18 230.24 270.18 236.21C266.5 241.69 244.3 223.95 243.81 234.79C243.31 245.63 267.45 237.61 269 244.15C270.2 249.24 246.41 253.87 256.96 261.25C267.51 268.62 270.89 246.24 276.7 247.69C281.11 248.79 275.21 267.18 284.1 264.31C293 261.44 283.69 245.49 286.4 240.03Z" fill="#38BFF2" fill-opacity="1.000000" fill-rule="nonzero"/>
	<g opacity="0.300003">
		<g opacity="0.300003">
			<g opacity="0.300003">
				<path id="path72" d="M286.4 240.03C288.98 234.84 310.37 231.29 298.13 220.02C285.89 208.75 285.93 232.91 280.48 232.81C272.85 232.69 274.34 200.38 261.76 208.72C249.18 217.06 274.18 230.24 270.18 236.21C266.5 241.69 244.3 223.95 243.81 234.79C243.31 245.63 267.45 237.61 268.99 244.15C270.2 249.24 246.4 253.87 256.96 261.24C267.51 268.62 270.89 246.23 276.7 247.69C281.11 248.79 275.21 267.18 284.1 264.31C293 261.44 283.69 245.49 286.4 240.03Z" fill="#000000" fill-opacity="1.000000" fill-rule="nonzero"/>
			</g>
		</g>
	</g>
	<path id="path82" d="M275.4 240.26C275.4 240.26 316.84 235.94 320.93 280.71" stroke="#1A2E35" stroke-opacity="1.000000" stroke-width="1.333333" stroke-linejoin="round" stroke-linecap="round"/>
	<path id="path86" d="M354.41 235.4C360.86 240.77 358.72 272.08 378.68 258.6C398.63 245.11 364.6 237.11 366.54 229.47C369.27 218.77 414.28 231.63 406.72 211.13C399.17 190.64 372.27 221.46 365.19 213.83C358.7 206.82 391.08 181.47 375.98 177.15C360.88 172.84 364.13 209.52 354.41 209.51C346.84 209.51 348.25 174.45 334.34 186.86C320.43 199.27 350.84 211.49 346.86 219.19C343.83 225.04 319.89 210.59 320.97 224.08C322.04 237.56 347.62 229.76 354.41 235.4Z" fill="#38BFF2" fill-opacity="1.000000" fill-rule="nonzero"/>
	<g opacity="0.300003">
		<g opacity="0.300003">
			<g opacity="0.300003">
				<path id="path96" d="M354.41 235.4C360.86 240.77 358.72 272.08 378.68 258.6C398.63 245.11 364.6 237.11 366.54 229.47C369.27 218.77 414.28 231.63 406.72 211.13C399.17 190.64 372.27 221.46 365.19 213.83C358.7 206.82 391.08 181.47 375.98 177.15C360.88 172.84 364.13 209.52 354.41 209.51C346.84 209.51 348.25 174.45 334.34 186.86C320.43 199.27 350.84 211.49 346.86 219.19C343.83 225.04 319.89 210.59 320.97 224.08C322.04 237.56 347.62 229.76 354.41 235.4Z" fill="#FFFFFF" fill-opacity="1.000000" fill-rule="nonzero"/>
			</g>
		</g>
	</g>
	<path id="path106" d="M359 219.37C359 219.37 340.12 244.57 335.81 286.64" stroke="#1A2E35" stroke-opacity="1.000000" stroke-width="1.333333" stroke-linejoin="round" stroke-linecap="round"/>
	<path id="path110" d="M345.48 352.45L316.06 352.45C310.42 352.45 305.73 348.14 305.25 342.53L300.62 288.16C300.08 281.83 305.08 276.39 311.43 276.39L350.11 276.39C356.46 276.39 361.46 281.83 360.92 288.16L356.29 342.53C355.81 348.14 351.12 352.45 345.48 352.45Z" fill="#38BFF2" fill-opacity="1.000000" fill-rule="nonzero"/>
	<path id="path114" d="M316.06 352.45C310.42 352.45 305.73 348.14 305.25 342.53L300.62 288.16C300.08 281.83 305.08 276.39 311.43 276.39L350.11 276.39C356.46 276.39 361.46 281.83 360.92 288.16L356.29 342.53C355.81 348.14 351.12 352.45 345.48 352.45L316.06 352.45Z" stroke="#1A2E35" stroke-opacity="1.000000" stroke-width="1.333333" stroke-linejoin="round"/>
	<path id="path126" d="M125.13 274.37C134.97 274.37 163.38 267.95 163.38 267.95L86.89 267.95C86.89 267.95 115.3 274.37 125.13 274.37Z" fill="#1A2E35" fill-opacity="1.000000" fill-rule="nonzero"/>
	<path id="path130" d="M163.38 267.95L86.89 267.95C86.89 267.95 115.3 274.37 125.13 274.37C134.97 274.37 163.38 267.95 163.38 267.95Z" stroke="#1A2E35" stroke-opacity="1.000000" stroke-width="1.333333" stroke-linejoin="round"/>
	<path id="path132" d="M116.37 283.17L133.9 283.17L133.9 271.16L116.37 271.16L116.37 283.17Z" fill="#868686" fill-opacity="1.000000" fill-rule="nonzero"/>
	<path id="path132" d="M133.9 283.17L133.9 271.16L116.37 271.16L116.37 283.17L133.9 283.17Z" stroke="#1A2E35" stroke-opacity="1.000000" stroke-width="1.333333" stroke-linejoin="round"/>
	<path id="path134" d="M113.78 334.84L136.49 334.84L136.49 283.17L113.78 283.17L113.78 334.84Z" fill="#9A9A9A" fill-opacity="1.000000" fill-rule="nonzero"/>
	<path id="path134" d="M136.49 334.84L136.49 283.17L113.78 283.17L113.78 334.84L136.49 334.84Z" stroke="#1A2E35" stroke-opacity="1.000000" stroke-width="1.333333" stroke-linejoin="round"/>
	<path id="path138" d="M82.47 252.63L97.23 252.63C95.59 242.46 94.38 232.09 93.64 221.82L78.87 221.82C79.62 232.09 80.83 242.46 82.47 252.63Z" fill="#868686" fill-opacity="1.000000" fill-rule="nonzero"/>
	<path id="path142" d="M97.23 252.63C95.59 242.46 94.38 232.09 93.64 221.82L78.87 221.82C79.62 232.09 80.83 242.46 82.47 252.63L97.23 252.63Z" stroke="#1A2E35" stroke-opacity="1.000000" stroke-width="1.333333" stroke-linejoin="round"/>
	<path id="path146" d="M60.05 130.83L123.68 130.83C131.16 130.83 136.05 137.15 134.61 144.59C130.53 167.5 128.13 190.15 127.33 213.41C127.21 220.15 122.08 225.36 115.34 225.36L61.77 225.36C55.03 225.36 48.96 220.15 48.09 213.41C45.51 190.39 44.58 167.75 45.3 144.59C45.65 137.15 52.57 130.83 60.05 130.83Z" fill="#868686" fill-opacity="1.000000" fill-rule="nonzero"/>
	<path id="path150" d="M123.68 130.83C131.16 130.83 136.05 137.15 134.61 144.59C130.53 167.5 128.13 190.15 127.33 213.41C127.21 220.15 122.08 225.36 115.34 225.36L61.77 225.36C55.03 225.36 48.96 220.15 48.09 213.41C45.51 190.39 44.58 167.75 45.3 144.59C45.65 137.15 52.57 130.83 60.05 130.83L123.68 130.83Z" stroke="#1A2E35" stroke-opacity="1.000000" stroke-width="1.333333" stroke-linejoin="round"/>
	<path id="path154" d="M56.58 144.59C55.86 167.75 56.8 190.39 59.38 213.41C60.24 220.15 66.31 225.36 73.06 225.36L115.34 225.36C122.08 225.36 127.21 220.15 127.33 213.41C128.13 190.15 130.53 167.5 134.61 144.59C136.05 137.15 131.16 130.83 123.68 130.83L71.34 130.83C63.85 130.83 56.94 137.15 56.58 144.59Z" fill="#9A9A9A" fill-opacity="1.000000" fill-rule="nonzero"/>
	<path id="path158" d="M59.38 213.41C60.24 220.15 66.31 225.36 73.06 225.36L115.34 225.36C122.08 225.36 127.21 220.15 127.33 213.41C128.13 190.15 130.53 167.5 134.61 144.59C136.05 137.15 131.16 130.83 123.68 130.83L71.34 130.83C63.85 130.83 56.94 137.15 56.58 144.59C55.86 167.75 56.8 190.39 59.38 213.41Z" stroke="#1A2E35" stroke-opacity="1.000000" stroke-width="1.333333" stroke-linejoin="round"/>
	<path id="path162" d="M86.89 344.11C86.89 345.32 88 346.22 89.19 345.97C96.15 344.45 117 340.06 125.13 340.06C133.27 340.06 154.12 344.45 161.08 345.97C162.26 346.22 163.38 345.32 163.38 344.11C163.38 341.76 161.74 339.73 159.45 339.24C151.3 337.49 132.71 333.68 125.13 333.68C117.56 333.68 98.97 337.49 90.82 339.24C88.52 339.73 86.89 341.76 86.89 344.11Z" fill="#1A2E35" fill-opacity="1.000000" fill-rule="nonzero"/>
	<path id="path166" d="M89.19 345.97C96.15 344.45 117 340.06 125.13 340.06C133.27 340.06 154.12 344.45 161.08 345.97C162.26 346.22 163.38 345.32 163.38 344.11C163.38 341.76 161.74 339.73 159.45 339.24C151.3 337.49 132.71 333.68 125.13 333.68C117.56 333.68 98.97 337.49 90.82 339.24C88.52 339.73 86.89 341.76 86.89 344.11C86.89 345.32 88 346.22 89.19 345.97Z" stroke="#1A2E35" stroke-opacity="1.000000" stroke-width="1.333333" stroke-linejoin="round"/>
	<path id="path170" d="M163.38 350.35C165.34 350.35 166.92 348.77 166.92 346.81C166.92 344.85 165.34 343.26 163.38 343.26C161.42 343.26 159.84 344.85 159.84 346.81C159.84 348.77 161.42 350.35 163.38 350.35ZM163.38 340.27C166.99 340.27 169.92 343.2 169.92 346.81C169.92 350.42 166.99 353.35 163.38 353.35C159.77 353.35 156.84 350.42 156.84 346.81C156.84 343.2 159.77 340.27 163.38 340.27Z" fill="#868686" fill-opacity="1.000000" fill-rule="nonzero"/>
	<path id="path174" d="M166.92 346.81C166.92 344.85 165.34 343.26 163.38 343.26C161.42 343.26 159.84 344.85 159.84 346.81C159.84 348.77 161.42 350.35 163.38 350.35C165.34 350.35 166.92 348.77 166.92 346.81ZM169.92 346.81C169.92 350.42 166.99 353.35 163.38 353.35C159.77 353.35 156.84 350.42 156.84 346.81C156.84 343.2 159.77 340.27 163.38 340.27C166.99 340.27 169.92 343.2 169.92 346.81Z" stroke="#1A2E35" stroke-opacity="1.000000" stroke-width="1.333333" stroke-linejoin="round"/>
	<path id="path178" d="M125.13 350.35C127.09 350.35 128.67 348.77 128.67 346.81C128.67 344.85 127.09 343.26 125.13 343.26C123.18 343.26 121.59 344.85 121.59 346.81C121.59 348.77 123.18 350.35 125.13 350.35ZM125.13 340.27C128.75 340.27 131.67 343.2 131.67 346.81C131.67 350.42 128.75 353.35 125.13 353.35C121.52 353.35 118.59 350.42 118.59 346.81C118.59 343.2 121.52 340.27 125.13 340.27Z" fill="#868686" fill-opacity="1.000000" fill-rule="nonzero"/>
	<path id="path182" d="M128.67 346.81C128.67 344.85 127.09 343.26 125.13 343.26C123.18 343.26 121.59 344.85 121.59 346.81C121.59 348.77 123.18 350.35 125.13 350.35C127.09 350.35 128.67 348.77 128.67 346.81ZM131.67 346.81C131.67 350.42 128.75 353.35 125.13 353.35C121.52 353.35 118.59 350.42 118.59 346.81C118.59 343.2 121.52 340.27 125.13 340.27C128.75 340.27 131.67 343.2 131.67 346.81Z" stroke="#1A2E35" stroke-opacity="1.000000" stroke-width="1.333333" stroke-linejoin="round"/>
	<path id="path186" d="M87.68 350.35C89.64 350.35 91.22 348.77 91.22 346.81C91.22 344.85 89.64 343.26 87.68 343.26C85.72 343.26 84.14 344.85 84.14 346.81C84.14 348.77 85.72 350.35 87.68 350.35ZM87.68 340.27C91.29 340.27 94.22 343.2 94.22 346.81C94.22 350.42 91.29 353.35 87.68 353.35C84.07 353.35 81.14 350.42 81.14 346.81C81.14 343.2 84.07 340.27 87.68 340.27Z" fill="#868686" fill-opacity="1.000000" fill-rule="nonzero"/>
	<path id="path190" d="M91.22 346.81C91.22 344.85 89.64 343.26 87.68 343.26C85.72 343.26 84.14 344.85 84.14 346.81C84.14 348.77 85.72 350.35 87.68 350.35C89.64 350.35 91.22 348.77 91.22 346.81ZM94.22 346.81C94.22 350.42 91.29 353.35 87.68 353.35C84.07 353.35 81.14 350.42 81.14 346.81C81.14 343.2 84.07 340.27 87.68 340.27C91.29 340.27 94.22 343.2 94.22 346.81Z" stroke="#1A2E35" stroke-opacity="1.000000" stroke-width="1.333333" stroke-linejoin="round"/>
	<path id="path194" d="M105.75 250.56C131.49 251.36 156.61 250.24 182.18 247.18C187.39 246.48 191.6 250.04 191.6 255.27L191.6 256.52C191.6 261.74 187.39 266.65 182.18 267.35C156.61 270.41 131.49 271.53 105.75 270.73L105.75 250.56Z" fill="#9A9A9A" fill-opacity="1.000000" fill-rule="nonzero"/>
	<path id="path198" d="M182.18 247.18C187.39 246.48 191.6 250.04 191.6 255.27L191.6 256.52C191.6 261.74 187.39 266.65 182.18 267.35C156.61 270.41 131.49 271.53 105.75 270.73L105.75 250.56C131.49 251.36 156.61 250.24 182.18 247.18Z" stroke="#1A2E35" stroke-opacity="1.000000" stroke-width="1.333333" stroke-linejoin="round"/>
	<path id="path202" d="M65.65 267.01C81.5 269 97.2 270.32 113.16 271C117.05 271.11 120.2 268 120.2 264.12L120.2 257.99C120.2 254.11 117.05 250.94 113.16 250.83C97.2 250.15 81.5 248.83 65.65 246.85C61.79 246.3 58.67 248.95 58.67 252.83L58.67 258.95C58.67 262.83 61.79 266.47 65.65 267.01Z" fill="#868686" fill-opacity="1.000000" fill-rule="nonzero"/>
	<path id="path206" d="M113.16 271C117.05 271.11 120.2 268 120.2 264.12L120.2 257.99C120.2 254.11 117.05 250.94 113.16 250.83C97.2 250.15 81.5 248.83 65.65 246.85C61.79 246.3 58.67 248.95 58.67 252.83L58.67 258.95C58.67 262.83 61.79 266.47 65.65 267.01C81.5 269 97.2 270.32 113.16 271Z" stroke="#1A2E35" stroke-opacity="1.000000" stroke-width="1.333333" stroke-linejoin="round"/>
	<path id="path210" d="M171.74 349.95C171.79 346.39 172.52 339.26 176.71 330.06L182.18 310.34L199.24 317.63L194.44 332.73C194.44 332.73 209.11 339.73 214.52 341.62C218.13 342.87 228.92 345.35 228.38 349.97C228.38 351.34 227.27 352.45 225.9 352.45L174.23 352.45C172.85 352.45 171.72 351.33 171.74 349.95Z" fill="#FFFFFF" fill-opacity="1.000000" fill-rule="nonzero"/>
	<path id="path214" d="M176.71 330.06L182.18 310.34L199.24 317.63L194.44 332.73C194.44 332.73 209.11 339.73 214.52 341.62C218.13 342.87 228.92 345.35 228.38 349.97C228.38 351.34 227.27 352.45 225.9 352.45L174.23 352.45C172.85 352.45 171.72 351.33 171.74 349.95C171.79 346.39 172.52 339.26 176.71 330.06Z" stroke="#1A2E35" stroke-opacity="1.000000" stroke-width="1.333333" stroke-linejoin="round"/>
	<path id="path218" d="M181.13 338.42C183.79 340.37 198.01 342.86 194.44 340.02C190.88 337.17 194.44 332.73 194.44 332.73C194.44 332.73 209.11 339.73 214.52 341.61C218.13 342.87 228.92 345.35 228.39 349.97C228.39 351.34 227.27 352.45 225.9 352.45L174.23 352.45C172.85 352.45 171.72 351.33 171.74 349.95C171.78 346.94 172.31 341.38 175 334.19C177.94 334.22 178.46 336.46 181.13 338.42Z" fill="#38BFF2" fill-opacity="1.000000" fill-rule="nonzero"/>
	<path id="path222" d="M194.44 340.02C190.88 337.17 194.44 332.73 194.44 332.73C194.44 332.73 209.11 339.73 214.52 341.61C218.13 342.87 228.92 345.35 228.39 349.97C228.39 351.34 227.27 352.45 225.9 352.45L174.23 352.45C172.85 352.45 171.72 351.33 171.74 349.95C171.78 346.94 172.31 341.38 175 334.19C177.94 334.22 178.46 336.46 181.13 338.42C183.79 340.37 198.01 342.86 194.44 340.02Z" stroke="#1A2E35" stroke-opacity="1.000000" stroke-width="1.333333" stroke-linejoin="round"/>
	<path id="path226" d="M159.4 352.45L121.55 352.45C120.77 352.45 120.1 351.9 119.95 351.13C119.37 348.12 119.5 341.4 122.92 332.46L123.25 314.33L142.64 317.62L140.18 333.09C140.18 333.09 147.99 341.68 151.7 343.21C154.3 344.3 160.23 344.41 161.02 350.64C161.14 351.6 160.37 352.45 159.4 352.45Z" fill="#FFFFFF" fill-opacity="1.000000" fill-rule="nonzero"/>
	<path id="path230" d="M121.55 352.45C120.77 352.45 120.1 351.9 119.95 351.13C119.37 348.12 119.5 341.4 122.92 332.46L123.25 314.33L142.64 317.62L140.18 333.09C140.18 333.09 147.99 341.68 151.7 343.21C154.3 344.3 160.23 344.41 161.02 350.64C161.14 351.6 160.37 352.45 159.4 352.45L121.55 352.45Z" stroke="#1A2E35" stroke-opacity="1.000000" stroke-width="1.333333" stroke-linejoin="round"/>
	<path id="path234" d="M129.31 338.49C133.31 341.28 136.26 341.62 134.39 337.42C132.53 333.22 140.18 333.09 140.18 333.09C140.18 333.09 147.99 341.67 151.7 343.21C154.3 344.29 160.23 344.41 161.02 350.64C161.14 351.6 160.37 352.45 159.4 352.45L121.55 352.45C120.77 352.45 120.1 351.9 119.95 351.13C119.37 348.12 119.5 341.4 122.92 332.46C125.84 333.17 125.3 335.69 129.31 338.49Z" fill="#38BFF2" fill-opacity="1.000000" fill-rule="nonzero"/>
	<path id="path238" d="M134.39 337.42C132.53 333.22 140.18 333.09 140.18 333.09C140.18 333.09 147.99 341.67 151.7 343.21C154.3 344.29 160.23 344.41 161.02 350.64C161.14 351.6 160.37 352.45 159.4 352.45L121.55 352.45C120.77 352.45 120.1 351.9 119.95 351.13C119.37 348.12 119.5 341.4 122.92 332.46C125.84 333.17 125.3 335.69 129.31 338.49C133.31 341.28 136.26 341.62 134.39 337.42Z" stroke="#1A2E35" stroke-opacity="1.000000" stroke-width="1.333333" stroke-linejoin="round"/>
	<path id="path242" d="M163.17 214.02C163.17 214.02 166.98 217.93 182.58 220.42C198.18 222.91 230.52 230.73 230.16 243.52C229.81 256.32 199.95 324.56 199.95 324.56C199.95 324.56 185.03 321.71 178.1 317.45C178.1 317.45 190.11 268.76 199.12 255.96C199.12 255.96 158.68 250.99 136.31 241.75C113.94 232.5 127.09 211.47 127.09 211.47L163.17 214.02Z" fill="#1A2E35" fill-opacity="1.000000" fill-rule="nonzero"/>
	<path id="path246" d="M182.58 220.42C198.18 222.91 230.52 230.73 230.16 243.52C229.81 256.32 199.95 324.56 199.95 324.56C199.95 324.56 185.03 321.71 178.1 317.45C178.1 317.45 190.11 268.76 199.12 255.96C199.12 255.96 158.68 250.99 136.31 241.75C113.94 232.5 127.09 211.47 127.09 211.47L163.17 214.02C163.17 214.02 166.98 217.93 182.58 220.42Z" stroke="#1A2E35" stroke-opacity="1.000000" stroke-width="1.333333" stroke-linejoin="round"/>
	<path id="path250" d="M137.76 212.23C137.76 212.23 132.02 221.84 136.31 227.17C140.6 232.5 164.93 242.46 162.18 254.54C159.44 266.62 150.35 283.68 144.43 324.2C144.43 324.2 130.65 322.07 121.41 318.16C121.41 318.16 119.88 276.93 130.59 259.16C130.59 259.16 99.9 253.47 96.8 243.17C93.69 232.86 99.5 217.1 99.62 211.47L137.76 212.23Z" fill="#1A2E35" fill-opacity="1.000000" fill-rule="nonzero"/>
	<path id="path254" d="M136.31 227.17C140.6 232.5 164.93 242.46 162.18 254.54C159.44 266.62 150.35 283.68 144.43 324.2C144.43 324.2 130.65 322.07 121.41 318.16C121.41 318.16 119.88 276.93 130.59 259.16C130.59 259.16 99.9 253.47 96.8 243.17C93.69 232.86 99.5 217.1 99.62 211.47L137.76 212.23C137.76 212.23 132.02 221.84 136.31 227.17Z" stroke="#1A2E35" stroke-opacity="1.000000" stroke-width="1.333333" stroke-linejoin="round"/>
	<path id="path258" d="M156.25 227.5C156.92 227.45 157.63 227.46 158.37 227.53" stroke="#808080" stroke-opacity="1.000000" stroke-width="1.000000" stroke-linejoin="round" stroke-linecap="round"/>
	<path id="path262" d="M154.9 221.13C154.9 221.13 148.59 222.99 146.12 231.2C145.92 231.85 146.74 232.35 147.21 231.86C148.53 230.54 150.57 228.91 153.28 228.05" stroke="#808080" stroke-opacity="1.000000" stroke-width="1.000000" stroke-linejoin="round" stroke-linecap="round"/>
	<path id="path266" d="M202.08 255.52C202.08 252.05 217.01 250.19 213.01 246.99C209.01 243.79 199.95 254.18 199.95 254.18" stroke="#808080" stroke-opacity="1.000000" stroke-width="1.000000" stroke-linejoin="round" stroke-linecap="round"/>
	<path id="path270" d="M128.74 269.38C128.74 265.41 143 263.25 142.29 258.98C141.58 254.72 132.51 263.11 132.51 263.11" stroke="#808080" stroke-opacity="1.000000" stroke-width="1.000000" stroke-linejoin="round" stroke-linecap="round"/>
	<path id="path274" d="M201.52 324.8L199.95 328.42C199.77 328.83 199.33 329.06 198.9 328.96C195.45 328.19 181.08 324.79 176.03 321.17C175.73 320.96 175.6 320.57 175.69 320.21L176.67 316.17C176.81 315.57 177.49 315.28 178.03 315.57C180.29 316.81 186.62 319.76 200.9 323.52C201.45 323.67 201.75 324.27 201.52 324.8Z" fill="#9A9A9A" fill-opacity="1.000000" fill-rule="nonzero"/>
	<path id="path278" d="M199.95 328.42C199.77 328.83 199.33 329.06 198.9 328.96C195.45 328.19 181.08 324.79 176.03 321.17C175.73 320.96 175.6 320.57 175.69 320.21L176.67 316.17C176.81 315.57 177.49 315.28 178.03 315.57C180.29 316.81 186.62 319.76 200.9 323.52C201.45 323.67 201.75 324.27 201.52 324.8L199.95 328.42Z" stroke="#1A2E35" stroke-opacity="1.000000" stroke-width="1.333333" stroke-linejoin="round"/>
	<path id="path282" d="M146.16 321.81C146.24 321.27 145.72 320.82 145.2 321.01C144.18 321.39 142.45 321.68 139.84 321.09C135.89 320.19 124.57 316.6 121.21 315.53C120.73 315.38 120.25 315.74 120.25 316.24L120.25 320.95C120.25 321.24 120.42 321.5 120.68 321.62C123.33 322.8 137.5 328.87 144.91 327.21C145.21 327.15 145.42 326.9 145.47 326.6L146.16 321.81Z" fill="#9A9A9A" fill-opacity="1.000000" fill-rule="nonzero"/>
	<path id="path286" d="M145.2 321.01C144.18 321.39 142.45 321.68 139.84 321.09C135.89 320.19 124.57 316.6 121.21 315.53C120.73 315.38 120.25 315.74 120.25 316.24L120.25 320.95C120.25 321.24 120.42 321.5 120.68 321.62C123.33 322.8 137.5 328.87 144.91 327.21C145.21 327.15 145.42 326.9 145.47 326.6L146.16 321.81C146.24 321.27 145.72 320.82 145.2 321.01Z" stroke="#1A2E35" stroke-opacity="1.000000" stroke-width="1.333333" stroke-linejoin="round"/>
	<path id="path290" d="M134.76 223.12C134.89 224.58 135.35 225.99 136.31 227.17C139.44 231.06 153.23 237.41 159.4 245.25" stroke="#808080" stroke-opacity="1.000000" stroke-width="1.333333" stroke-linejoin="round" stroke-linecap="round"/>
	<path id="path294" d="M135.42 217.7C135.2 218.47 135.01 219.28 134.88 220.1" stroke="#808080" stroke-opacity="1.000000" stroke-width="1.333333" stroke-linejoin="round" stroke-linecap="round"/>
	<path id="path298" d="M217.08 344.01C217.08 344.01 216.02 345.7 215.22 349.08L176.71 349.08C176.71 349.08 176.61 346.5 174.57 344.68" stroke="#1A2E35" stroke-opacity="1.000000" stroke-width="1.333333" stroke-linejoin="round" stroke-linecap="round"/>
	<path id="path302" d="M150.18 344.01C150.18 344.01 144.85 344.41 142.85 349.08L122.72 349.08C122.72 349.08 121.66 346.68 121.66 344.68" stroke="#1A2E35" stroke-opacity="1.000000" stroke-width="1.333333" stroke-linejoin="round" stroke-linecap="round"/>
	<path id="path306" d="M181.74 153.72C181.24 155.6 180.73 157.47 180.23 159.29C174.9 178.48 167.97 215 167.97 215C133.85 222.2 97.86 215 97.86 215C97.67 207.04 98.63 196.54 99.71 185.51C94.12 183.96 90.08 178.8 89.87 170.22C89.6 159.82 91.48 141.11 92.53 132.37C93.45 124.68 92.8 120.11 104.71 114.28C110.68 110.84 120.59 109.21 132.78 107.58C156.77 104.38 174.08 109.23 180.23 111.84C185.1 110.56 186.45 116.28 186.45 116.28C189.15 114.24 192.28 122.88 192.28 122.88C200.17 132.95 206.38 149.9 208.44 155.95C208.9 157.27 209.74 158.42 210.85 159.26C216.45 163.53 213.34 168.81 213.34 168.81L201.88 172.32C201.88 172.32 196.33 173.77 192.08 166.46C188.53 160.36 182.74 150 181.74 153.72Z" fill="#38BFF2" fill-opacity="1.000000" fill-rule="nonzero"/>
	<g opacity="0.300003">
		<g opacity="0.300003">
			<g opacity="0.300003">
				<path id="path324" d="M199.77 167.5C199.77 167.5 200.03 162.17 204.3 161.24C208.56 160.31 203.1 158.71 199.77 159.51C196.44 160.31 197.2 157.37 194.35 152.58C191.5 147.78 190.11 143.99 187.67 146.75C185.24 149.52 182.76 149.9 181.74 153.72C180.71 157.54 185.77 166.46 185.77 166.46L193.73 172.63L197.77 174.9L203.8 174.9L205.86 169.69L199.77 167.5Z" fill="#000000" fill-opacity="1.000000" fill-rule="nonzero"/>
			</g>
		</g>
	</g>
	<path id="path342" d="M180.23 159.29C174.9 178.48 167.97 215 167.97 215C133.85 222.2 97.86 215 97.86 215C97.67 207.04 98.64 196.54 99.72 185.51C94.12 183.96 90.09 178.8 89.87 170.22C89.6 159.82 91.48 141.11 92.53 132.37C93.45 124.68 92.8 120.11 104.71 114.28C110.68 110.83 120.59 109.21 132.78 107.58C156.77 104.38 174.08 109.23 180.23 111.84C185.1 110.56 186.45 116.28 186.45 116.28C189.15 114.24 192.28 122.88 192.28 122.88C200.17 132.94 206.38 149.9 208.45 155.95C208.9 157.27 209.74 158.42 210.86 159.26C216.45 163.53 213.34 168.81 213.34 168.81L201.88 172.32C201.88 172.32 196.33 173.77 192.08 166.46C188.53 160.36 182.74 150 181.74 153.72C181.24 155.6 180.73 157.47 180.23 159.29Z" stroke="#1A2E35" stroke-opacity="1.000000" stroke-width="1.333333" stroke-linejoin="round"/>
	<g opacity="0.300003">
		<g opacity="0.300003">
			<g opacity="0.300003">
				<path id="path352" d="M97.86 215C97.72 209.24 98.19 202.14 98.87 194.49C97.71 210.72 131.52 215.8 132.59 207C133.65 198.2 99.72 185.51 118.18 189.95C134.3 193.82 165.52 190.12 173.2 189.11C170.25 202.98 167.97 215 167.97 215C133.85 222.2 97.86 215 97.86 215Z" fill="#000000" fill-opacity="1.000000" fill-rule="nonzero"/>
			</g>
		</g>
	</g>
	<g opacity="0.300003">
		<g opacity="0.300003">
			<g opacity="0.300003">
				<path id="path368" d="M113.37 133.44C113.37 133.44 118.19 147.56 118.18 155.03C118.17 162.48 131.71 167.49 131.74 167.5C124.49 166.02 117.42 164.07 114.05 163.1C112.85 162.75 112.07 161.62 112.18 160.38C112.84 152.72 113.56 142.42 113.36 133.44L113.37 133.44Z" fill="#000000" fill-opacity="1.000000" fill-rule="nonzero"/>
			</g>
		</g>
	</g>
	<path id="path378" d="M186.2 129.88C186.2 129.88 186.37 140.04 182.65 149.38C182.3 150.25 183.29 151.04 184.05 150.49C185.87 149.18 188.46 146.52 190.8 141.14" stroke="#1A2E35" stroke-opacity="1.000000" stroke-width="1.000000" stroke-linejoin="round" stroke-linecap="round"/>
	<path id="path382" d="M95.73 173.42C98.54 164.09 103.41 161.75 107.18 161.52C107.79 161.48 107.99 160.69 107.46 160.4C105.27 159.21 101 158.28 95.73 164.09" stroke="#1A2E35" stroke-opacity="1.000000" stroke-width="1.000000" stroke-linejoin="round" stroke-linecap="round"/>
	<path id="path386" d="M149.82 146.71C149.82 147.6 150.53 148.32 151.42 148.32C152.3 148.32 153.02 147.6 153.02 146.71C153.02 145.83 152.3 145.11 151.42 145.11C150.53 145.11 149.82 145.83 149.82 146.71Z" fill="#9A9A9A" fill-opacity="1.000000" fill-rule="nonzero"/>
	<path id="path390" d="M151.42 148.32C152.3 148.32 153.02 147.6 153.02 146.71C153.02 145.83 152.3 145.11 151.42 145.11C150.53 145.11 149.82 145.83 149.82 146.71C149.82 147.6 150.53 148.32 151.42 148.32Z" stroke="#1A2E35" stroke-opacity="1.000000" stroke-width="1.000000" stroke-linejoin="round"/>
	<path id="path394" d="M147.64 164.86C147.64 165.75 148.36 166.46 149.25 166.46C150.13 166.46 150.85 165.75 150.85 164.86C150.85 163.98 150.13 163.26 149.25 163.26C148.36 163.26 147.64 163.98 147.64 164.86Z" fill="#9A9A9A" fill-opacity="1.000000" fill-rule="nonzero"/>
	<path id="path398" d="M149.25 166.46C150.13 166.46 150.85 165.75 150.85 164.86C150.85 163.98 150.13 163.26 149.25 163.26C148.36 163.26 147.64 163.98 147.64 164.86C147.64 165.75 148.36 166.46 149.25 166.46Z" stroke="#1A2E35" stroke-opacity="1.000000" stroke-width="1.000000" stroke-linejoin="round"/>
	<path id="path402" d="M142.29 208.6C142.29 209.49 143.01 210.2 143.89 210.2C144.78 210.2 145.49 209.49 145.49 208.6C145.49 207.72 144.78 207 143.89 207C143.01 207 142.29 207.72 142.29 208.6Z" fill="#9A9A9A" fill-opacity="1.000000" fill-rule="nonzero"/>
	<path id="path406" d="M143.89 210.2C144.78 210.2 145.49 209.49 145.49 208.6C145.49 207.72 144.78 207 143.89 207C143.01 207 142.29 207.72 142.29 208.6C142.29 209.49 143.01 210.2 143.89 210.2Z" stroke="#1A2E35" stroke-opacity="1.000000" stroke-width="1.333333" stroke-linejoin="round"/>
	<path id="path410" d="M172.91 176.75C172.91 176.75 178.14 181.75 175.65 181.82C173.16 181.9 170.01 178.48 167.12 178.08C164.23 177.68 168.9 175.92 168.9 175.92L172.91 176.75Z" fill="#FFFFFF" fill-opacity="1.000000" fill-rule="nonzero"/>
	<path id="path414" d="M175.65 181.82C173.16 181.9 170.01 178.48 167.12 178.08C164.23 177.68 168.9 175.92 168.9 175.92L172.91 176.75C172.91 176.75 178.14 181.75 175.65 181.82Z" stroke="#1A2E35" stroke-opacity="1.000000" stroke-width="1.333333" stroke-linejoin="round"/>
	<path id="path418" d="M142.34 171.14C142.81 170.71 143.44 170.51 144.08 170.56C146.64 170.77 153.99 171.32 156.77 171.15C161.69 170.85 176.2 167.78 176.2 167.78C176.53 167.72 176.88 167.74 177.21 167.83L186.19 170.47C186.52 170.57 186.82 170.74 187.07 170.97L192.51 175.97C192.69 176.13 192.84 176.33 192.96 176.54L194.08 178.61C194.56 179.48 194.4 180.56 193.69 181.26L184.69 181.54C184.13 181.56 183.59 181.37 183.17 181.01L180.51 178.72C180.33 178.57 180.18 178.39 180.05 178.19C179.4 177.14 176.89 173.61 172.91 173.95C172.91 173.95 181.43 178.48 179.83 180.35C178.23 182.21 171.7 176.88 169.57 177.42C167.48 177.94 167.29 183.18 155.69 181.29C155.17 181.2 154.64 181.22 154.13 181.36L143.58 184.31C142.26 184.68 140.9 183.89 140.56 182.56C139.77 179.47 139.05 174.14 142.34 171.14Z" fill="#FFFFFF" fill-opacity="1.000000" fill-rule="nonzero"/>
	<path id="path422" d="M144.08 170.56C146.64 170.77 153.99 171.32 156.77 171.15C161.69 170.85 176.2 167.78 176.2 167.78C176.53 167.72 176.88 167.74 177.21 167.83L186.19 170.47C186.52 170.57 186.82 170.74 187.07 170.97L192.51 175.97C192.69 176.13 192.84 176.33 192.96 176.54L194.08 178.61C194.56 179.48 194.4 180.56 193.69 181.26L184.69 181.54C184.13 181.56 183.59 181.37 183.17 181.01L180.51 178.72C180.33 178.57 180.18 178.39 180.05 178.19C179.4 177.14 176.89 173.61 172.91 173.95C172.91 173.95 181.43 178.48 179.83 180.35C178.23 182.21 171.7 176.88 169.57 177.42C167.48 177.94 167.29 183.18 155.69 181.29C155.17 181.2 154.64 181.22 154.13 181.36L143.58 184.31C142.26 184.68 140.9 183.89 140.56 182.56C139.77 179.47 139.05 174.14 142.34 171.14C142.81 170.71 143.44 170.51 144.08 170.56Z" stroke="#1A2E35" stroke-opacity="1.000000" stroke-width="1.333333" stroke-linejoin="round"/>
	<path id="path426" d="M174.94 169.69L177.21 170.07C178.31 170.25 179.34 170.74 180.18 171.48L182.53 173.54C182.95 173.9 183.31 174.32 183.61 174.78L185.16 177.14C185.33 177.4 185.52 177.64 185.73 177.88C186.65 178.89 189.17 181.89 186.44 181.49M174.86 170.33L174.83 170.34C174.46 170.28 174.22 169.94 174.29 169.58C174.35 169.21 174.69 168.97 175.05 169.03L175.07 169.05L174.86 170.33ZM186.37 182.13L186.35 182.15C185.98 182.09 185.73 181.76 185.78 181.39C185.84 181.02 186.17 180.77 186.54 180.83L186.56 180.85L186.37 182.13Z" fill="#FFFFFF" fill-opacity="1.000000" fill-rule="nonzero"/>
	<path id="path426" d="M174.94 169.69L177.21 170.07C178.31 170.25 179.34 170.74 180.18 171.48L182.53 173.54C182.95 173.9 183.31 174.32 183.61 174.78L185.16 177.14C185.33 177.4 185.52 177.64 185.73 177.88C186.65 178.89 189.17 181.89 186.44 181.49" stroke="#1A2E35" stroke-opacity="1.000000" stroke-width="1.333333" stroke-linejoin="round" stroke-linecap="round"/>
	<path id="path430" d="M181.31 170.49L183.65 171.12C184.38 171.32 185.04 171.69 185.59 172.22L187.41 173.97C187.59 174.13 187.75 174.31 187.89 174.51L190.88 178.48C190.88 178.48 192.49 181.3 190.88 181.35M181.16 171.12L181.13 171.13C180.77 171.03 180.57 170.67 180.66 170.31C180.76 169.95 181.12 169.75 181.48 169.84L181.5 169.87L181.16 171.12ZM190.92 181.99L190.9 182.02C190.53 182.03 190.23 181.74 190.22 181.37C190.21 181 190.49 180.69 190.86 180.68L190.88 180.7L190.92 181.99Z" fill="#FFFFFF" fill-opacity="1.000000" fill-rule="nonzero"/>
	<path id="path430" d="M181.31 170.49L183.65 171.12C184.38 171.32 185.04 171.69 185.59 172.22L187.41 173.97C187.59 174.13 187.75 174.31 187.89 174.51L190.88 178.48C190.88 178.48 192.49 181.3 190.88 181.35" stroke="#1A2E35" stroke-opacity="1.000000" stroke-width="1.333333" stroke-linejoin="round" stroke-linecap="round"/>
	<path id="path434" d="M113.3 131.17C113.69 140.64 112.9 152.07 112.18 160.38C112.07 161.62 112.85 162.75 114.05 163.1C118.7 164.44 130.38 167.65 139.89 168.9" stroke="#1A2E35" stroke-opacity="1.000000" stroke-width="1.333333" stroke-linejoin="round" stroke-linecap="round"/>
	<path id="path438" d="M112.76 124.56C112.9 125.65 113.02 126.79 113.11 127.97" stroke="#1A2E35" stroke-opacity="1.000000" stroke-width="1.000000" stroke-linejoin="round" stroke-linecap="round"/>
	<path id="path442" d="M109.19 114.58C110.41 115.63 111.31 117.58 111.96 120.14" stroke="#1A2E35" stroke-opacity="1.000000" stroke-width="1.000000" stroke-linejoin="round" stroke-linecap="round"/>
	<path id="path446" d="M162.57 108.25C162.57 108.25 161.91 106.11 158.31 104.91C154.71 103.71 142.26 101.79 135.85 104.91C129.44 108.03 141.71 124.97 141.71 124.97L147.44 132.83L152.51 136.63L154.78 129.88L157.71 126.84C157.71 126.84 164.04 121.64 163.5 116.51C162.97 111.38 162.57 108.25 162.57 108.25Z" fill="#FFFFFF" fill-opacity="1.000000" fill-rule="nonzero"/>
	<path id="path450" d="M136.4 107.54C144.86 134.11 152.33 135.3 152.33 135.3C154.82 125.53 156.95 127.66 160.32 121.55C163.03 116.65 162.12 110.44 161.65 108.18C161.53 107.63 161.19 107.15 160.69 106.9C152.29 102.62 142.01 104.19 137.77 105.13C136.69 105.37 136.07 106.49 136.4 107.54ZM131.12 107.8C132.12 104.3 136.69 103.31 136.69 103.31C158.55 99.58 163.17 107.53 163.17 107.53C167.61 119.91 163.17 129.88 163.17 129.88C163.17 129.88 156.95 127.3 155.88 129.88C154.82 132.45 152.86 137.97 152.86 137.97C152.86 137.97 148.6 135.83 145.22 131.39C141.84 126.95 133.9 131.39 133.9 131.39C128.81 122.51 131.12 107.8 131.12 107.8Z" fill="#38BFF2" fill-opacity="1.000000" fill-rule="nonzero"/>
	<g opacity="0.399994">
		<g opacity="0.399994">
			<g opacity="0.399994">
				<path id="path468" d="M136.4 107.54C144.86 134.11 152.33 135.3 152.33 135.3C154.82 125.53 156.95 127.66 160.32 121.55C163.03 116.65 162.12 110.44 161.65 108.18C161.53 107.63 161.19 107.15 160.69 106.9C152.29 102.62 142.01 104.19 137.77 105.13C136.7 105.37 136.07 106.49 136.4 107.54ZM131.12 107.8C132.12 104.3 136.69 103.31 136.69 103.31C158.55 99.58 163.17 107.53 163.17 107.53C167.61 119.91 163.17 129.88 163.17 129.88C163.17 129.88 156.95 127.3 155.88 129.88C154.82 132.45 152.86 137.97 152.86 137.97C152.86 137.97 148.6 135.83 145.22 131.39C141.84 126.95 133.9 131.39 133.9 131.39C128.81 122.51 131.12 107.8 131.12 107.8Z" fill="#FFFFFF" fill-opacity="1.000000" fill-rule="nonzero"/>
			</g>
		</g>
	</g>
	<path id="path486" d="M152.33 135.3C154.82 125.53 156.95 127.66 160.32 121.55C163.03 116.65 162.12 110.44 161.65 108.18C161.53 107.63 161.19 107.15 160.69 106.9C152.29 102.62 142.01 104.19 137.77 105.13C136.69 105.37 136.07 106.49 136.4 107.54C144.86 134.11 152.33 135.3 152.33 135.3ZM136.69 103.31C158.55 99.58 163.17 107.53 163.17 107.53C167.61 119.91 163.17 129.88 163.17 129.88C163.17 129.88 156.95 127.3 155.88 129.88C154.82 132.45 152.86 137.97 152.86 137.97C152.86 137.97 148.6 135.83 145.22 131.39C141.84 126.95 133.9 131.39 133.9 131.39C128.81 122.51 131.12 107.8 131.12 107.8C132.12 104.3 136.69 103.31 136.69 103.31Z" stroke="#1A2E35" stroke-opacity="1.000000" stroke-width="1.333333" stroke-linejoin="round"/>
	<path id="path490" d="M166.8 67.2C166.8 67.2 185.64 70.97 175.26 83.22C163.76 96.81 166.8 67.2 166.8 67.2Z" fill="#1A2E35" fill-opacity="1.000000" fill-rule="nonzero"/>
	<path id="path494" d="M175.26 83.22C163.76 96.81 166.8 67.2 166.8 67.2C166.8 67.2 185.64 70.97 175.26 83.22Z" stroke="#1A2E35" stroke-opacity="1.000000" stroke-width="1.333333" stroke-linejoin="round"/>
	<path id="path498" d="M174.23 97.09C174.23 97.09 178.71 78.97 170.18 70.26C161.65 61.55 152.41 59.78 145.48 64.04C138.54 68.31 135.7 78.97 136.77 84.48C137.83 89.99 137.31 109.71 146.82 117.89C156.32 126.06 162.16 124.05 168.44 112.91C172.57 105.59 174.55 103.49 174.23 97.09Z" fill="#FFFFFF" fill-opacity="1.000000" fill-rule="nonzero"/>
	<path id="path502" d="M170.18 70.26C161.65 61.55 152.41 59.78 145.48 64.04C138.54 68.31 135.7 78.97 136.77 84.48C137.83 89.99 137.31 109.71 146.82 117.89C156.32 126.06 162.16 124.05 168.44 112.91C172.57 105.59 174.55 103.49 174.23 97.09C174.23 97.09 178.71 78.97 170.18 70.26Z" stroke="#1A2E35" stroke-opacity="1.000000" stroke-width="1.333333" stroke-linejoin="round"/>
	<path id="path506" d="M141.21 93.54C141.21 93.54 148.37 86.43 150.57 78.08C152.76 69.73 154 68.31 162.18 72.39C170.35 76.48 183.11 70.98 179.77 60.67C176.26 49.83 165.56 63.86 155.25 60.31C144.94 56.76 137.63 63.15 137.62 72.57C137.62 72.57 131.39 78.61 137.63 94.25L141.21 93.54Z" fill="#1A2E35" fill-opacity="1.000000" fill-rule="nonzero"/>
	<path id="path510" d="M150.57 78.08C152.76 69.73 154 68.31 162.18 72.39C170.35 76.48 183.11 70.98 179.77 60.67C176.26 49.83 165.56 63.86 155.25 60.31C144.94 56.76 137.63 63.15 137.62 72.57C137.62 72.57 131.39 78.61 137.63 94.25L141.21 93.54C141.21 93.54 148.37 86.43 150.57 78.08Z" stroke="#1A2E35" stroke-opacity="1.000000" stroke-width="1.333333" stroke-linejoin="round"/>
	<path id="path514" d="M143.46 92.35C143.46 92.35 141.65 82.41 136.61 83.33C131.57 84.26 135.17 98.92 141.1 97.32M144.09 92.21L144.12 92.23C144.18 92.6 143.95 92.94 143.58 93C143.21 93.07 142.87 92.84 142.8 92.47L142.82 92.44L144.09 92.21ZM140.91 96.7L140.93 96.67C141.29 96.58 141.65 96.78 141.74 97.14C141.84 97.5 141.64 97.86 141.27 97.96L141.25 97.95L140.91 96.7Z" fill="#FFFFFF" fill-opacity="1.000000" fill-rule="nonzero"/>
	<path id="path514" d="M143.46 92.35C143.46 92.35 141.65 82.41 136.61 83.33C131.57 84.26 135.17 98.92 141.1 97.32" stroke="#1A2E35" stroke-opacity="1.000000" stroke-width="1.333333" stroke-linejoin="round" stroke-linecap="round"/>
	<path id="path518" d="M167.42 95.72C167.42 95.72 169.4 104.94 168.75 106.52C168.11 108.11 162.01 106.9 162.01 106.9M166.79 95.87L166.77 95.86C166.69 95.49 166.92 95.14 167.28 95.07C167.65 94.99 168 95.21 168.07 95.58L168.06 95.6L166.79 95.87ZM161.9 107.53L161.88 107.55C161.51 107.48 161.28 107.13 161.35 106.77C161.42 106.4 161.77 106.17 162.14 106.24L162.15 106.27L161.9 107.53Z" fill="#FFFFFF" fill-opacity="1.000000" fill-rule="nonzero"/>
	<path id="path518" d="M167.42 95.72C167.42 95.72 169.4 104.94 168.75 106.52C168.11 108.11 162.01 106.9 162.01 106.9" stroke="#1A2E35" stroke-opacity="1.000000" stroke-width="1.333333" stroke-linejoin="round" stroke-linecap="round"/>
	<path id="path522" d="M161.16 110.91C161.16 110.91 156.38 112.8 152.17 106.52M160.9 110.32L160.91 110.29C161.26 110.15 161.64 110.32 161.78 110.67C161.91 111.01 161.75 111.39 161.4 111.53L161.38 111.52L160.9 110.32ZM151.64 106.9L151.62 106.89C151.41 106.58 151.49 106.18 151.8 105.97C152.11 105.76 152.52 105.84 152.72 106.15L152.72 106.18L151.64 106.9Z" fill="#FFFFFF" fill-opacity="1.000000" fill-rule="nonzero"/>
	<path id="path522" d="M161.16 110.91C161.16 110.91 156.38 112.8 152.17 106.52" stroke="#1A2E35" stroke-opacity="1.000000" stroke-width="1.333333" stroke-linejoin="round" stroke-linecap="round"/>
	<path id="path526" d="M170.69 96.49C170.51 97.35 170.74 98.12 171.19 98.21C171.65 98.31 172.16 97.69 172.34 96.83C172.52 95.97 172.3 95.2 171.84 95.1C171.38 95.01 170.87 95.63 170.69 96.49Z" fill="#1A2E35" fill-opacity="1.000000" fill-rule="nonzero"/>
	<path id="path530" d="M159 95.55C158.82 96.41 159.05 97.18 159.5 97.27C159.96 97.37 160.47 96.75 160.65 95.89C160.83 95.03 160.6 94.26 160.15 94.16C159.69 94.07 159.18 94.69 159 95.55Z" fill="#1A2E35" fill-opacity="1.000000" fill-rule="nonzero"/>
	<path id="path534" d="M173.66 101.05C176.89 101.37 179.71 99.67 179.95 97.26C180.2 94.84 177.65 93.78 174.42 93.45C171.18 93.13 168.48 93.67 168.23 96.09C167.99 98.5 170.42 100.72 173.66 101.05Z" stroke="#1A2E35" stroke-opacity="1.000000" stroke-width="1.333333" stroke-linejoin="round"/>
	<path id="path538" d="M158.57 99.54C161.8 99.86 164.62 98.16 164.86 95.75C165.11 93.33 162.56 92.27 159.33 91.95C156.09 91.62 153.39 92.16 153.15 94.58C152.9 96.99 155.33 99.21 158.57 99.54Z" stroke="#1A2E35" stroke-opacity="1.000000" stroke-width="1.333333" stroke-linejoin="round"/>
	<path id="path542" d="M168.23 96.09L164.86 95.75M168.28 95.44L168.3 95.42C168.67 95.46 168.93 95.78 168.9 96.15C168.86 96.52 168.54 96.79 168.17 96.75L168.15 96.73L168.28 95.44ZM164.82 96.4L164.8 96.41C164.43 96.38 164.16 96.06 164.2 95.68C164.24 95.31 164.56 95.05 164.93 95.09L164.95 95.11L164.82 96.4Z" fill="#FFFFFF" fill-opacity="1.000000" fill-rule="nonzero"/>
	<path id="path542" d="M168.23 96.09L164.86 95.75" stroke="#1A2E35" stroke-opacity="1.000000" stroke-width="1.333333" stroke-linejoin="round" stroke-linecap="round"/>
	<path id="path546" d="M153.56 93.37L141.17 86.06M153.87 92.8L153.9 92.79C154.22 92.98 154.32 93.39 154.13 93.71C153.95 94.03 153.54 94.13 153.22 93.94L153.21 93.92L153.87 92.8ZM140.85 86.63L140.83 86.63C140.5 86.44 140.4 86.04 140.59 85.72C140.78 85.4 141.18 85.3 141.5 85.49L141.51 85.51L140.85 86.63Z" fill="#FFFFFF" fill-opacity="1.000000" fill-rule="nonzero"/>
	<path id="path546" d="M153.56 93.37L141.17 86.06" stroke="#1A2E35" stroke-opacity="1.000000" stroke-width="1.333333" stroke-linejoin="round" stroke-linecap="round"/>
	<path id="path550" d="M139.04 104.74L138.46 106.16M138.43 104.51L138.42 104.48C138.57 104.14 138.95 103.98 139.29 104.12C139.64 104.26 139.8 104.65 139.66 104.99L139.63 105L138.43 104.51ZM139.06 106.39L139.07 106.41C138.93 106.76 138.55 106.92 138.2 106.77C137.86 106.63 137.7 106.25 137.84 105.9L137.86 105.89L139.06 106.39Z" fill="#FFFFFF" fill-opacity="1.000000" fill-rule="nonzero"/>
	<path id="path550" d="M139.04 104.74L138.46 106.16" stroke="#1A2E35" stroke-opacity="1.000000" stroke-width="1.333333" stroke-linejoin="round" stroke-linecap="round"/>
	<path id="path554" d="M175.22 92.19C175.22 92.19 173.34 89.79 171.02 90.94M175.72 91.77L175.75 91.78C175.98 92.07 175.93 92.48 175.63 92.71C175.34 92.94 174.93 92.89 174.7 92.6L174.7 92.57L175.72 91.77ZM171.33 91.51L171.32 91.54C170.98 91.71 170.59 91.58 170.42 91.24C170.26 90.91 170.39 90.51 170.72 90.35L170.75 90.36L171.33 91.51Z" fill="#FFFFFF" fill-opacity="1.000000" fill-rule="nonzero"/>
	<path id="path554" d="M175.22 92.19C175.22 92.19 173.34 89.79 171.02 90.94" stroke="#1A2E35" stroke-opacity="1.000000" stroke-width="1.333333" stroke-linejoin="round" stroke-linecap="round"/>
	<path id="path558" d="M155.9 91.12C155.9 91.12 159.22 87.95 162.41 90.17M156.37 91.57L156.36 91.6C156.09 91.86 155.68 91.85 155.42 91.58C155.16 91.31 155.17 90.89 155.44 90.63L155.47 90.63L156.37 91.57ZM162.77 89.63L162.79 89.62C163.1 89.84 163.17 90.25 162.96 90.55C162.75 90.86 162.34 90.93 162.03 90.72L162.03 90.69L162.77 89.63Z" fill="#FFFFFF" fill-opacity="1.000000" fill-rule="nonzero"/>
	<path id="path558" d="M155.9 91.12C155.9 91.12 159.22 87.95 162.41 90.17" stroke="#1A2E35" stroke-opacity="1.000000" stroke-width="1.333333" stroke-linejoin="round" stroke-linecap="round"/>
	<path id="path562" d="M171.04 61.86C165.99 63.47 157.5 65.42 150.57 63.33C139.97 60.13 143.56 72.07 141.17 75.36" stroke="#808080" stroke-opacity="1.000000" stroke-width="1.333333" stroke-linejoin="round" stroke-linecap="round"/>
	<path id="path566" d="M175.4 60.27C175.4 60.27 174.55 60.64 173.12 61.15" stroke="#808080" stroke-opacity="1.000000" stroke-width="1.333333" stroke-linejoin="round" stroke-linecap="round"/>
	<path id="path570" d="M162.66 67.8C162.1 67.63 161.51 67.43 160.89 67.2" stroke="#808080" stroke-opacity="1.000000" stroke-width="1.333333" stroke-linejoin="round" stroke-linecap="round"/>
	<path id="path574" d="M174.23 66.4C174.23 66.4 171.97 69.89 164.69 68.33" stroke="#808080" stroke-opacity="1.000000" stroke-width="1.333333" stroke-linejoin="round" stroke-linecap="round"/>
	<path id="path578" d="M147.15 73.23C146.7 76.27 145.56 80.67 142.63 84.65" stroke="#808080" stroke-opacity="1.000000" stroke-width="1.333333" stroke-linejoin="round" stroke-linecap="round"/>
	<path id="path582" d="M147.43 69.46C147.43 69.46 147.46 70.18 147.36 71.37" stroke="#808080" stroke-opacity="1.000000" stroke-width="1.333333" stroke-linejoin="round" stroke-linecap="round"/>
	<g opacity="0.300003">
		<g opacity="0.300003">
			<g opacity="0.300003">
				<path id="path592" d="M137.95 183.84C138.8 184.61 138.3 186.02 137.15 186.03C129.95 186.06 110.53 186.11 103 185.68C93.67 185.15 100.79 175 108.29 178.87C115.2 182.44 129.75 176.5 137.95 183.84Z" fill="#000000" fill-opacity="1.000000" fill-rule="nonzero"/>
			</g>
		</g>
	</g>
	<path id="path602" d="M219.14 173.84C219.14 173.84 214.78 162.23 203.84 164.08C192.79 165.94 201.26 175.08 206.52 175.89C206.52 175.89 207.32 172.71 219.14 173.84Z" fill="#FFFFFF" fill-opacity="1.000000" fill-rule="nonzero"/>
	<path id="path606" d="M203.84 164.08C192.79 165.94 201.26 175.08 206.52 175.89C206.52 175.89 207.32 172.71 219.14 173.84C219.14 173.84 214.78 162.23 203.84 164.08Z" stroke="#1A2E35" stroke-opacity="1.000000" stroke-width="1.333333" stroke-linejoin="round"/>
	<path id="path610" d="M228.4 180.43C229.85 181.88 233.31 182 230.98 178.87C228.4 175.41 225.5 174.25 223.52 173.37C218.33 171.05 216.3 171.51 211.61 170.49C206.91 169.46 206.04 171.37 204.41 172.26C200.54 174.38 199.61 174.75 198.64 176.88C197.66 179.01 196.59 181.79 199.61 181.79C202.37 181.79 202.55 177.23 205.21 177.41C207.88 177.59 209.21 181.79 211.08 181.79L211.79 181.79C213.39 181.79 213.47 180.45 212.49 178.36C211.51 176.27 210.45 174.39 210.45 174.39C210.45 174.39 212.77 175.44 214.05 178.17C215.33 180.89 215.57 182.03 217.92 182.03C220.27 182.03 220.11 180.29 217.77 176.43C217.77 176.43 219.88 177.58 221.03 179.76C222.18 181.94 222.78 181.79 224.29 181.79C226.27 181.79 226.14 178.52 222.63 176.39C222.63 176.39 223.4 175.43 228.4 180.43Z" fill="#FFFFFF" fill-opacity="1.000000" fill-rule="nonzero"/>
	<path id="path614" d="M230.98 178.87C228.4 175.41 225.5 174.25 223.52 173.37C218.33 171.05 216.3 171.51 211.61 170.49C206.91 169.46 206.04 171.37 204.41 172.26C200.54 174.38 199.61 174.75 198.64 176.88C197.66 179.01 196.59 181.79 199.61 181.79C202.37 181.79 202.55 177.23 205.21 177.41C207.88 177.59 209.21 181.79 211.08 181.79L211.79 181.79C213.39 181.79 213.47 180.45 212.49 178.36C211.51 176.27 210.45 174.39 210.45 174.39C210.45 174.39 212.77 175.44 214.05 178.17C215.33 180.89 215.57 182.03 217.92 182.03C220.27 182.03 220.11 180.29 217.77 176.43C217.77 176.43 219.88 177.58 221.03 179.76C222.18 181.94 222.78 181.79 224.29 181.79C226.27 181.79 226.14 178.52 222.63 176.39C222.63 176.39 223.4 175.43 228.4 180.43C229.85 181.88 233.31 182 230.98 178.87Z" stroke="#1A2E35" stroke-opacity="1.000000" stroke-width="1.333333" stroke-linejoin="round"/>
	<path id="path618" d="M214.69 172.63C214.69 172.63 216.07 172.57 216.94 174.9M214.74 173.11L214.72 173.13C214.44 173.15 214.21 172.94 214.19 172.66C214.18 172.38 214.39 172.15 214.67 172.14L214.69 172.15L214.74 173.11ZM217.38 174.71L217.41 174.73C217.51 174.99 217.38 175.27 217.11 175.37C216.85 175.47 216.57 175.34 216.47 175.07L216.48 175.05L217.38 174.71Z" fill="#FFFFFF" fill-opacity="1.000000" fill-rule="nonzero"/>
	<path id="path618" d="M214.69 172.63C214.69 172.63 216.07 172.57 216.94 174.9" stroke="#1A2E35" stroke-opacity="1.000000" stroke-width="1.000000" stroke-linejoin="round" stroke-linecap="round"/>
	<path id="path630" d="M39.49 72.25C32.69 77.59 26.14 83.4 19.87 89.67" stroke="#1A2E35" stroke-opacity="1.000000" stroke-width="1.000000" stroke-linejoin="round" stroke-linecap="round"/>
	<path id="path634" d="M46.93 66.65C45.63 67.59 44.33 68.54 43.05 69.51" stroke="#1A2E35" stroke-opacity="1.000000" stroke-width="1.000000" stroke-linejoin="round" stroke-linecap="round"/>
	<path id="path638" d="M54.36 61.54C53.03 62.42 51.7 63.32 50.38 64.23" stroke="#1A2E35" stroke-opacity="1.000000" stroke-width="1.000000" stroke-linejoin="round" stroke-linecap="round"/>
	<path id="path642" d="M108.91 35.74C91.47 41.17 74.58 48.85 58.69 58.77" stroke="#1A2E35" stroke-opacity="1.000000" stroke-width="1.000000" stroke-linejoin="round" stroke-linecap="round"/>
	<path id="path646" d="M120.56 32.46C118.4 33 116.25 33.58 114.1 34.19" stroke="#1A2E35" stroke-opacity="1.000000" stroke-width="1.000000" stroke-linejoin="round" stroke-linecap="round"/>
	<path id="path650" d="M132.53 29.81C130.19 30.26 127.85 30.75 125.53 31.27" stroke="#1A2E35" stroke-opacity="1.000000" stroke-width="1.000000" stroke-linejoin="round" stroke-linecap="round"/>
	<path id="path654" d="M143.21 28.02C141.19 28.31 139.17 28.62 137.16 28.97" stroke="#1A2E35" stroke-opacity="1.000000" stroke-width="1.000000" stroke-linejoin="round" stroke-linecap="round"/>
	<path id="path658" d="M207.52 28.45C187.75 25.38 167.65 25.04 147.81 27.42" stroke="#1A2E35" stroke-opacity="1.000000" stroke-width="1.000000" stroke-linejoin="round" stroke-linecap="round"/>
	<path id="path662" d="M216.32 30C214.5 29.64 212.68 29.31 210.86 29" stroke="#1A2E35" stroke-opacity="1.000000" stroke-width="1.000000" stroke-linejoin="round" stroke-linecap="round"/>
	<path id="path666" d="M224.85 31.87C223.03 31.43 221.21 31.02 219.39 30.63" stroke="#1A2E35" stroke-opacity="1.000000" stroke-width="1.000000" stroke-linejoin="round" stroke-linecap="round"/>
	<path id="path670" d="M235.35 34.66C233.49 34.12 231.64 33.6 229.77 33.11" stroke="#1A2E35" stroke-opacity="1.000000" stroke-width="1.000000" stroke-linejoin="round" stroke-linecap="round"/>
	<path id="path674" d="M298.8 65.16C280.84 52.57 261.42 43.01 241.22 36.47" stroke="#1A2E35" stroke-opacity="1.000000" stroke-width="1.000000" stroke-linejoin="round" stroke-linecap="round"/>
	<path id="path678" d="M307.37 71.49C305.7 70.19 304.02 68.92 302.32 67.68" stroke="#1A2E35" stroke-opacity="1.000000" stroke-width="1.000000" stroke-linejoin="round" stroke-linecap="round"/>
	<path id="path682" d="M315.96 78.52C314.14 76.95 312.29 75.41 310.42 73.9" stroke="#1A2E35" stroke-opacity="1.000000" stroke-width="1.000000" stroke-linejoin="round" stroke-linecap="round"/>
	<path id="path686" d="M327.97 89.67C325.47 87.17 322.92 84.74 320.33 82.39" stroke="#1A2E35" stroke-opacity="1.000000" stroke-width="1.000000" stroke-linejoin="round" stroke-linecap="round"/>
	<path id="path690" d="M244.59 50.72C244.59 65.37 256.46 77.25 271.11 77.25C285.76 77.25 297.64 65.37 297.64 50.72C297.64 36.07 285.76 24.2 271.11 24.2C256.46 24.2 244.59 36.07 244.59 50.72Z" fill="#38BFF2" fill-opacity="1.000000" fill-rule="nonzero"/>
	<g opacity="0.300003">
		<g opacity="0.300003">
			<g opacity="0.300003">
				<path id="path708" d="M245 50.09C245 64.74 256.87 76.61 271.52 76.61C286.17 76.61 298.04 64.74 298.04 50.09C298.04 35.44 286.17 23.56 271.52 23.56C256.87 23.56 245 35.44 245 50.09Z" fill="#FFFFFF" fill-opacity="1.000000" fill-rule="nonzero"/>
			</g>
		</g>
	</g>
	<path id="path726" d="M271.11 77.25C285.76 77.25 297.64 65.37 297.64 50.72C297.64 36.07 285.76 24.2 271.11 24.2C256.46 24.2 244.59 36.07 244.59 50.72C244.59 65.37 256.46 77.25 271.11 77.25Z" stroke="#1A2E35" stroke-opacity="1.000000" stroke-width="1.000000" stroke-linejoin="round"/>
	<path id="path746" d="M322.51 125.39L337.81 125.39C344.86 125.39 350.56 119.68 350.56 112.64L350.56 97.34C350.56 90.3 344.86 84.59 337.81 84.59L322.51 84.59C315.47 84.59 309.76 90.3 309.76 97.34L309.76 112.64C309.76 119.68 315.47 125.39 322.51 125.39Z" fill="#38BFF2" fill-opacity="1.000000" fill-rule="nonzero"/>
	<path id="path750" d="M337.81 125.39C344.86 125.39 350.56 119.68 350.56 112.64L350.56 97.34C350.56 90.3 344.86 84.59 337.81 84.59L322.51 84.59C315.47 84.59 309.76 90.3 309.76 97.34L309.76 112.64C309.76 119.68 315.47 125.39 322.51 125.39L337.81 125.39Z" stroke="#1A2E35" stroke-opacity="1.000000" stroke-width="1.000000" stroke-linejoin="round"/>
	<path id="path754" d="M344.95 105.98L344.95 104.01L336.79 100.49L336.79 102.62L342.42 104.99L336.79 107.36L336.79 109.5L344.95 105.98Z" fill="#FFFFFF" fill-opacity="1.000000" fill-rule="nonzero"/>
	<path id="path758" d="M344.95 104.01L336.79 100.49L336.79 102.62L342.42 104.99L336.79 107.36L336.79 109.5L344.95 105.98L344.95 104.01Z" stroke="#1A2E35" stroke-opacity="1.000000" stroke-width="1.000000" stroke-linejoin="round"/>
	<path id="path762" d="M327.75 95.66L325.22 95.66L332.58 114.32L335.11 114.32L327.75 95.66Z" fill="#FFFFFF" fill-opacity="1.000000" fill-rule="nonzero"/>
	<path id="path766" d="M325.22 95.66L332.58 114.32L335.11 114.32L327.75 95.66L325.22 95.66Z" stroke="#1A2E35" stroke-opacity="1.000000" stroke-width="1.000000" stroke-linejoin="round"/>
	<path id="path770" d="M323.53 107.36L317.91 104.99L323.53 102.62L323.53 100.49L315.38 104.01L315.38 105.98L323.53 109.5L323.53 107.36Z" fill="#FFFFFF" fill-opacity="1.000000" fill-rule="nonzero"/>
	<path id="path774" d="M317.91 104.99L323.53 102.62L323.53 100.49L315.38 104.01L315.38 105.98L323.53 109.5L323.53 107.36L317.91 104.99Z" stroke="#1A2E35" stroke-opacity="1.000000" stroke-width="1.000000" stroke-linejoin="round"/>
	<path id="path778" d="M60.29 44.72C60.29 57.22 70.43 67.36 82.93 67.36C95.43 67.36 105.57 57.22 105.57 44.72C105.57 32.22 95.43 22.08 82.93 22.08C70.43 22.08 60.29 32.22 60.29 44.72Z" fill="#38BFF2" fill-opacity="1.000000" fill-rule="nonzero"/>
	<g opacity="0.199997">
		<g opacity="0.199997">
			<g opacity="0.199997">
				<path id="path796" d="M60.14 45.16C60.14 57.66 70.28 67.8 82.78 67.8C95.29 67.8 105.42 57.66 105.42 45.16C105.42 32.65 95.29 22.52 82.78 22.52C70.28 22.52 60.14 32.65 60.14 45.16Z" fill="#000000" fill-opacity="1.000000" fill-rule="nonzero"/>
			</g>
		</g>
	</g>
	<path id="path814" d="M82.93 67.36C95.43 67.36 105.57 57.22 105.57 44.72C105.57 32.22 95.43 22.08 82.93 22.08C70.43 22.08 60.29 32.22 60.29 44.72C60.29 57.22 70.43 67.36 82.93 67.36Z" stroke="#1A2E35" stroke-opacity="1.000000" stroke-width="1.000000" stroke-linejoin="round"/>
	<path id="path842" d="M169.71 49.95L190.17 49.95C198.18 49.95 204.67 43.46 204.67 35.45L204.67 15C204.67 6.99 198.18 0.5 190.17 0.5L169.71 0.5C161.7 0.5 155.21 6.99 155.21 15L155.21 35.45C155.21 43.46 161.7 49.95 169.71 49.95Z" fill="#38BFF2" fill-opacity="1.000000" fill-rule="nonzero"/>
	<path id="path846" d="M190.17 49.95C198.18 49.95 204.67 43.46 204.67 35.45L204.67 15C204.67 6.99 198.18 0.5 190.17 0.5L169.71 0.5C161.7 0.5 155.21 6.99 155.21 15L155.21 35.45C155.21 43.46 161.7 49.95 169.71 49.95L190.17 49.95Z" stroke="#1A2E35" stroke-opacity="1.000000" stroke-width="1.000000" stroke-linejoin="round"/>
	<path id="path874" d="M0.49 92.6C0.49 105.08 10.6 115.18 23.08 115.18C35.55 115.18 45.66 105.08 45.66 92.6C45.66 80.13 35.55 70.02 23.08 70.02C10.6 70.02 0.49 80.13 0.49 92.6Z" fill="#38BFF2" fill-opacity="1.000000" fill-rule="nonzero"/>
	<g opacity="0.300003">
		<g opacity="0.300003">
			<g opacity="0.300003">
				<path id="path892" d="M1.09 93.06C1.09 105.53 11.2 115.64 23.67 115.64C36.14 115.64 46.25 105.53 46.25 93.06C46.25 80.59 36.14 70.48 23.67 70.48C11.2 70.48 1.09 80.59 1.09 93.06Z" fill="#FFFFFF" fill-opacity="1.000000" fill-rule="nonzero"/>
			</g>
		</g>
	</g>
	<path id="path910" d="M23.08 115.18C35.55 115.18 45.66 105.07 45.66 92.6C45.66 80.13 35.55 70.02 23.08 70.02C10.6 70.02 0.5 80.13 0.5 92.6C0.5 105.07 10.6 115.18 23.08 115.18Z" stroke="#1A2E35" stroke-opacity="1.000000" stroke-width="1.000000" stroke-linejoin="round"/>
	<path id="path930" d="M290.02 352.63L293.98 352.63L295.04 195.63L290.02 195.63L290.02 352.63Z" fill="#868686" fill-opacity="1.000000" fill-rule="nonzero"/>
	<path id="path934" d="M293.98 352.63L295.04 195.63L290.02 195.63L290.02 352.63L293.98 352.63Z" stroke="#1A2E35" stroke-opacity="1.000000" stroke-width="1.333333" stroke-linejoin="round"/>
	<path id="path938" d="M286.07 352.63L290.03 352.63L290.03 195.63L285.01 195.63L286.07 352.63Z" fill="#9A9A9A" fill-opacity="1.000000" fill-rule="nonzero"/>
	<path id="path942" d="M290.03 352.63L290.03 195.63L285.01 195.63L286.07 352.63L290.03 352.63Z" stroke="#1A2E35" stroke-opacity="1.000000" stroke-width="1.333333" stroke-linejoin="round"/>
	<path id="path944" d="M64.24 195.63L335.28 195.63L335.28 186.01L64.24 186.01L64.24 195.63Z" fill="#1A2E35" fill-opacity="1.000000" fill-rule="nonzero"/>
	<path id="path944" d="M335.28 195.63L335.28 186.01L64.24 186.01L64.24 195.63L335.28 195.63Z" stroke="#1A2E35" stroke-opacity="1.000000" stroke-width="1.333333" stroke-linejoin="round"/>
	<path id="path946" d="M7.6 195.63L68.29 195.63L68.29 186.01L7.6 186.01L7.6 195.63Z" fill="#868686" fill-opacity="1.000000" fill-rule="nonzero"/>
	<path id="path946" d="M68.29 195.63L68.29 186.01L7.6 186.01L7.6 195.63L68.29 195.63Z" stroke="#1A2E35" stroke-opacity="1.000000" stroke-width="1.333333" stroke-linejoin="round"/>
	<path id="path948" d="M51.94 211.47L321.4 211.47L321.4 195.63L51.94 195.63L51.94 211.47Z" fill="#38BFF2" fill-opacity="1.000000" fill-rule="nonzero"/>
	<path id="path948" d="M321.4 211.47L321.4 195.63L51.94 195.63L51.94 211.47L321.4 211.47Z" stroke="#1A2E35" stroke-opacity="1.000000" stroke-width="1.333333"/>
	<path id="path950" d="M51.94 211.47L20.57 211.47L20.57 195.63L51.94 195.63L51.94 211.47Z" fill="#38BFF2" fill-opacity="1.000000" fill-rule="nonzero"/>
	<g opacity="0.300003">
		<g opacity="0.300003">
			<path id="path968" d="M51.94 211.47L20.57 211.47L20.57 195.63L51.94 195.63L51.94 211.47Z" fill="#000000" fill-opacity="1.000000" fill-rule="nonzero"/>
		</g>
	</g>
	<path id="path974" d="M20.57 211.47L20.57 195.63L51.94 195.63L51.94 211.47L20.57 211.47Z" stroke="#1A2E35" stroke-opacity="1.000000" stroke-width="1.333333"/>
	<path id="path978" d="M51.94 352.63L55.89 352.63L56.96 195.63L51.94 195.63L51.94 352.63Z" fill="#868686" fill-opacity="1.000000" fill-rule="nonzero"/>
	<path id="path982" d="M55.89 352.63L56.96 195.63L51.94 195.63L51.94 352.63L55.89 352.63Z" stroke="#1A2E35" stroke-opacity="1.000000" stroke-width="1.333333" stroke-linejoin="round"/>
	<path id="path986" d="M47.99 352.63L51.94 352.63L51.94 195.63L46.93 195.63L47.99 352.63Z" fill="#9A9A9A" fill-opacity="1.000000" fill-rule="nonzero"/>
	<path id="path990" d="M51.94 352.63L51.94 195.63L46.93 195.63L47.99 352.63L51.94 352.63Z" stroke="#1A2E35" stroke-opacity="1.000000" stroke-width="1.333333" stroke-linejoin="round"/>
	<path id="path994" d="M321.4 352.63L325.35 352.63L326.42 195.63L321.4 195.63L321.4 352.63Z" fill="#868686" fill-opacity="1.000000" fill-rule="nonzero"/>
	<path id="path998" d="M325.35 352.63L326.42 195.63L321.4 195.63L321.4 352.63L325.35 352.63Z" stroke="#1A2E35" stroke-opacity="1.000000" stroke-width="1.333333" stroke-linejoin="round"/>
	<path id="path1002" d="M317.45 352.63L321.4 352.63L321.4 195.63L316.38 195.63L317.45 352.63Z" fill="#9A9A9A" fill-opacity="1.000000" fill-rule="nonzero"/>
	<path id="path1006" d="M321.4 352.63L321.4 195.63L316.38 195.63L317.45 352.63L321.4 352.63Z" stroke="#1A2E35" stroke-opacity="1.000000" stroke-width="1.333333" stroke-linejoin="round"/>
	<path id="path1010" d="M20.57 352.63L24.52 352.63L25.58 195.63L20.57 195.63L20.57 352.63Z" fill="#868686" fill-opacity="1.000000" fill-rule="nonzero"/>
	<path id="path1014" d="M24.52 352.63L25.58 195.63L20.57 195.63L20.57 352.63L24.52 352.63Z" stroke="#1A2E35" stroke-opacity="1.000000" stroke-width="1.333333" stroke-linejoin="round"/>
	<path id="path1018" d="M16.62 352.63L20.57 352.63L20.57 195.63L15.55 195.63L16.62 352.63Z" fill="#9A9A9A" fill-opacity="1.000000" fill-rule="nonzero"/>
	<path id="path1022" d="M20.57 352.63L20.57 195.63L15.55 195.63L16.62 352.63L20.57 352.63Z" stroke="#1A2E35" stroke-opacity="1.000000" stroke-width="1.333333" stroke-linejoin="round"/>
	<path id="path1034" d="M160.13 184.95L191.9 184.95C192.55 184.95 193.07 184.42 193.07 183.77L193.07 181.15L158.96 182.21L158.96 183.77C158.96 184.42 159.48 184.95 160.13 184.95Z" fill="#868686" fill-opacity="1.000000" fill-rule="nonzero"/>
	<path id="path1038" d="M191.9 184.95C192.55 184.95 193.07 184.42 193.07 183.77L193.07 181.15L158.96 182.21L158.96 183.77C158.96 184.42 159.48 184.95 160.13 184.95L191.9 184.95Z" stroke="#1A2E35" stroke-opacity="1.000000" stroke-width="1.333333" stroke-linejoin="round"/>
	<path id="path1042" d="M196.62 184.95L260.48 184.95C261.5 184.95 262.5 184.19 262.81 183.18L276.52 138.67C276.89 137.45 276.14 136.37 274.91 136.37L211.04 136.37C210.02 136.37 209.02 137.13 208.71 138.14L195 182.64C194.63 183.86 195.39 184.95 196.62 184.95Z" fill="#9A9A9A" fill-opacity="1.000000" fill-rule="nonzero"/>
	<path id="path1046" d="M260.48 184.95C261.5 184.95 262.5 184.19 262.81 183.18L276.52 138.67C276.89 137.45 276.14 136.37 274.91 136.37L211.04 136.37C210.02 136.37 209.02 137.13 208.71 138.14L195 182.64C194.63 183.86 195.39 184.95 196.62 184.95L260.48 184.95Z" stroke="#1A2E35" stroke-opacity="1.000000" stroke-width="1.333333" stroke-linejoin="round"/>
	<path id="path1050" d="M192.14 182.64L205.84 138.14C206.15 137.13 207.15 136.37 208.18 136.37L211.04 136.37C210.02 136.37 209.02 137.13 208.71 138.14L195 182.64C194.63 183.86 195.39 184.95 196.62 184.95L193.75 184.95C192.52 184.95 191.76 183.86 192.14 182.64Z" fill="#868686" fill-opacity="1.000000" fill-rule="nonzero"/>
	<path id="path1054" d="M205.84 138.14C206.15 137.13 207.15 136.37 208.18 136.37L211.04 136.37C210.02 136.37 209.02 137.13 208.71 138.14L195 182.64C194.63 183.86 195.39 184.95 196.62 184.95L193.75 184.95C192.52 184.95 191.76 183.86 192.14 182.64L205.84 138.14Z" stroke="#1A2E35" stroke-opacity="1.000000" stroke-width="1.333333" stroke-linejoin="round"/>
	<path id="path1058" d="M231.81 160.66C231.54 162.84 233.1 164.61 235.28 164.61C237.46 164.61 239.44 162.84 239.71 160.66C239.98 158.48 238.43 156.71 236.25 156.71C234.07 156.71 232.08 158.48 231.81 160.66Z" fill="#FFFFFF" fill-opacity="1.000000" fill-rule="nonzero"/>
	<path id="path1062" d="M235.28 164.61C237.46 164.61 239.44 162.84 239.71 160.66C239.98 158.48 238.43 156.71 236.25 156.71C234.07 156.71 232.08 158.48 231.81 160.66C231.54 162.84 233.1 164.61 235.28 164.61Z" stroke="#1A2E35" stroke-opacity="1.000000" stroke-width="1.333333" stroke-linejoin="round"/>
	<path id="path738" d="M86.82 52.53L87.23 52.53C88.13 52.53 88.59 52.12 88.59 50.7L88.59 46.84C88.59 45.91 88.93 44.93 90.17 44.57L90.17 44.52C88.93 44.16 88.59 43.18 88.59 42.25L88.59 38.38C88.59 36.96 88.13 36.55 87.23 36.55L86.82 36.55L86.82 34.23L88.26 34.23C89.86 34.23 91.12 35.13 91.12 37.09L91.12 41.84C91.12 43.02 91.45 43.38 92.74 43.38L92.74 45.7C91.45 45.7 91.12 46.06 91.12 47.25L91.12 51.99C91.12 53.95 89.86 54.85 88.26 54.85L86.82 54.85L86.82 52.53Z" fill="#FFFFFF" fill-opacity="1.000000" fill-rule="nonzero"/>
	<path id="path742" d="M86.98 52.8C87.93 52.8 88.43 52.37 88.43 50.9L88.43 46.89C88.43 45.93 88.78 44.91 90.1 44.54L90.1 44.48C88.78 44.11 88.43 43.09 88.43 42.13L88.43 38.11C88.43 36.64 87.93 36.22 86.98 36.22L86.54 36.22L86.54 33.81L88.07 33.81C89.77 33.81 91.11 34.74 91.11 36.78L91.11 41.7C91.11 42.93 91.46 43.31 92.83 43.31L92.83 45.71C91.46 45.71 91.11 46.09 91.11 47.32L91.11 52.24C91.11 54.27 89.77 55.21 88.07 55.21L86.54 55.21L86.54 52.8L86.98 52.8Z" stroke="#1A2E35" stroke-opacity="1.000000" stroke-width="1.000000" stroke-linejoin="round"/>
	<path id="path738" d="M79.96 52.53L79.55 52.53C78.65 52.53 78.19 52.12 78.19 50.7L78.19 46.84C78.19 45.91 77.85 44.93 76.61 44.57L76.61 44.52C77.85 44.16 78.19 43.18 78.19 42.25L78.19 38.38C78.19 36.96 78.65 36.55 79.55 36.55L79.96 36.55L79.96 34.23L78.52 34.23C76.92 34.23 75.66 35.13 75.66 37.09L75.66 41.84C75.66 43.02 75.33 43.38 74.04 43.38L74.04 45.7C75.33 45.7 75.66 46.06 75.66 47.25L75.66 51.99C75.66 53.95 76.92 54.85 78.52 54.85L79.96 54.85L79.96 52.53Z" fill="#FFFFFF" fill-opacity="1.000000" fill-rule="nonzero"/>
	<path id="path742" d="M79.8 52.8C78.85 52.8 78.35 52.37 78.35 50.9L78.35 46.89C78.35 45.93 78 44.91 76.68 44.54L76.68 44.48C78 44.11 78.35 43.09 78.35 42.13L78.35 38.11C78.35 36.64 78.85 36.22 79.8 36.22L80.24 36.22L80.24 33.81L78.71 33.81C77.01 33.81 75.67 34.74 75.67 36.78L75.67 41.7C75.67 42.93 75.32 43.31 73.95 43.31L73.95 45.71C75.32 45.71 75.67 46.09 75.67 47.32L75.67 52.24C75.67 54.27 77.01 55.21 78.71 55.21L80.24 55.21L80.24 52.8L79.8 52.8Z" stroke="#1A2E35" stroke-opacity="1.000000" stroke-width="1.000000" stroke-linejoin="round"/>
	<mask id="mask_39305_941" fill="white">
		<path id="Subtract" d="M184.881 32.2229L184.881 35.1621C184.881 37.0291 181.656 37.5056 179.876 37.5056L176.698 37.5056C175.202 37.3999 173.521 36.9099 173.521 35.1621L173.521 32.1038C173.521 28.8789 176.135 26.2646 179.36 26.2646C182.935 26.2646 185.834 23.3657 185.834 19.79L188.694 19.79C189.475 19.9753 191.038 21.3472 191.038 25.3511C191.038 29.738 186.448 31.2297 182.061 31.2297L179.161 31.2297L179.161 32.2229L184.881 32.2229ZM182.895 34.2485C182.544 34.2485 182.26 34.5332 182.26 34.8843C182.26 35.2351 182.544 35.5198 182.895 35.5198C183.246 35.5198 183.531 35.2351 183.531 34.8843C183.531 34.5332 183.246 34.2485 182.895 34.2485Z" clip-rule="evenodd" fill="" fill-opacity="1.000000" fill-rule="evenodd"/>
	</mask>
	<path id="Subtract" d="M184.881 32.2229L184.881 35.1621C184.881 37.0291 181.656 37.5056 179.876 37.5056L176.698 37.5056C175.202 37.3999 173.521 36.9099 173.521 35.1621L173.521 32.1038C173.521 28.8789 176.135 26.2646 179.36 26.2646C182.935 26.2646 185.834 23.3657 185.834 19.79L188.694 19.79C189.475 19.9753 191.038 21.3472 191.038 25.3511C191.038 29.738 186.448 31.2297 182.061 31.2297L179.161 31.2297L179.161 32.2229L184.881 32.2229ZM182.895 34.2485C182.544 34.2485 182.26 34.5332 182.26 34.8843C182.26 35.2351 182.544 35.5198 182.895 35.5198C183.246 35.5198 183.531 35.2351 183.531 34.8843C183.531 34.5332 183.246 34.2485 182.895 34.2485Z" clip-rule="evenodd" fill="#FFFFFF" fill-opacity="1.000000" fill-rule="evenodd" mask="url(#mask_39305_941)"/>
	<path id="Subtract" d="M185.881 35.1621L185.881 31.8299Q187.46 31.4722 188.672 30.8142Q190.233 29.9661 191.087 28.6707Q191.328 28.3053 191.508 27.912Q192.038 26.7527 192.038 25.3511Q192.038 23.8281 191.756 22.5962Q191.503 21.4866 191.03 20.6477Q190.605 19.8928 190.036 19.4111Q189.495 18.9524 188.925 18.8171L188.811 18.79L184.834 18.79L184.834 19.79Q184.834 20.4186 184.697 21.0159Q184.592 21.4776 184.404 21.9207Q184.211 22.3776 183.944 22.7859Q183.636 23.2556 183.231 23.6611Q182.823 24.0687 182.351 24.3772Q181.945 24.6426 181.49 24.8347Q181.046 25.0225 180.584 25.1283Q179.987 25.2646 179.36 25.2646Q178.601 25.2646 177.877 25.4248Q177.275 25.5582 176.697 25.8025Q176.117 26.0479 175.6 26.3887Q175.023 26.7689 174.524 27.2678Q174.025 27.7666 173.645 28.3436Q173.304 28.861 173.058 29.4412Q172.814 30.0185 172.681 30.6203Q172.521 31.3443 172.521 32.1038L172.521 35.1621Q172.521 35.8907 172.8 36.4884Q172.869 36.6361 172.956 36.7759Q173.001 36.8493 173.051 36.9197Q173.426 37.4525 174.045 37.8135Q175.034 38.3904 176.628 38.5032L176.663 38.5056L179.876 38.5056Q180.7 38.5056 181.541 38.3933Q182.562 38.2568 183.37 37.98Q184.413 37.6228 185.03 37.0481Q185.426 36.6799 185.641 36.2302Q185.739 36.0263 185.796 35.8117Q185.881 35.4983 185.881 35.1621ZM182.592 32.2229L179.161 32.2229L179.161 31.2297L182.061 31.2297C182.231 31.2297 182.402 31.2275 182.573 31.2229C186.797 31.1095 191.038 29.5676 191.038 25.3511C191.038 21.3472 189.475 19.9753 188.694 19.79L185.834 19.79C185.834 23.3657 182.935 26.2646 179.36 26.2646C176.135 26.2646 173.521 28.8789 173.521 32.1038L173.521 35.1621C173.521 36.9099 175.202 37.3999 176.698 37.5056L179.876 37.5056C181.656 37.5056 184.881 37.0291 184.881 35.1621L184.881 32.2229L182.592 32.2229ZM182.26 34.8843C182.26 34.5332 182.544 34.2485 182.895 34.2485C183.246 34.2485 183.531 34.5332 183.531 34.8843C183.531 35.2351 183.246 35.5198 182.895 35.5198C182.544 35.5198 182.26 35.2351 182.26 34.8843ZM183.035 35.2218Q182.971 35.2485 182.895 35.2485Q182.82 35.2485 182.755 35.2218Q182.691 35.1951 182.638 35.1418Q182.584 35.0884 182.557 35.024Q182.531 34.9596 182.531 34.8843Q182.531 34.8084 182.558 34.7437Q182.584 34.6796 182.638 34.6265Q182.691 34.5732 182.755 34.5465Q182.82 34.5198 182.895 34.5198Q182.971 34.5198 183.035 34.5465Q183.1 34.5732 183.153 34.6265Q183.206 34.6795 183.233 34.7436Q183.26 34.8083 183.26 34.8843Q183.26 34.9596 183.233 35.024Q183.206 35.0884 183.153 35.1418Q183.1 35.1951 183.035 35.2218Z" clip-rule="evenodd" fill="#1A2E35" fill-opacity="1.000000" fill-rule="evenodd"/>
	<mask id="mask_39305_944" fill="white">
		<path id="Subtract" d="M173.362 19.0349L173.362 16.0957C173.362 14.2288 176.587 13.7522 178.367 13.7522L181.544 13.7522C183.041 13.8579 184.722 14.3479 184.722 16.0957L184.722 19.1541C184.722 22.3789 182.108 24.9932 178.883 24.9932C175.307 24.9932 172.409 27.8921 172.409 31.4678L169.549 31.4678C168.767 31.2825 167.205 29.9106 167.205 25.9067C167.205 21.5198 171.795 20.0281 176.182 20.0281L179.082 20.0281L179.082 19.0349L173.362 19.0349ZM175.348 17.0093C175.699 17.0093 175.984 16.7246 175.984 16.3738C175.984 16.0227 175.699 15.738 175.348 15.738C174.997 15.738 174.712 16.0227 174.712 16.3738C174.712 16.7246 174.997 17.0093 175.348 17.0093Z" clip-rule="evenodd" fill="" fill-opacity="1.000000" fill-rule="evenodd"/>
	</mask>
	<path id="Subtract" d="M173.362 19.0349L173.362 16.0957C173.362 14.2288 176.587 13.7522 178.367 13.7522L181.544 13.7522C183.041 13.8579 184.722 14.3479 184.722 16.0957L184.722 19.1541C184.722 22.3789 182.108 24.9932 178.883 24.9932C175.307 24.9932 172.409 27.8921 172.409 31.4678L169.549 31.4678C168.767 31.2825 167.205 29.9106 167.205 25.9067C167.205 21.5198 171.795 20.0281 176.182 20.0281L179.082 20.0281L179.082 19.0349L173.362 19.0349ZM175.348 17.0093C175.699 17.0093 175.984 16.7246 175.984 16.3738C175.984 16.0227 175.699 15.738 175.348 15.738C174.997 15.738 174.712 16.0227 174.712 16.3738C174.712 16.7246 174.997 17.0093 175.348 17.0093Z" clip-rule="evenodd" fill="#FFFFFF" fill-opacity="1.000000" fill-rule="evenodd" mask="url(#mask_39305_944)"/>
	<path id="Subtract" d="M172.362 16.0957L172.362 19.4279Q170.782 19.7856 169.571 20.4436Q168.01 21.2917 167.156 22.5872Q166.915 22.9525 166.735 23.3458Q166.205 24.5051 166.205 25.9067Q166.205 27.4297 166.487 28.6616Q166.74 29.7712 167.213 30.6101Q167.638 31.365 168.206 31.8467Q168.748 32.3054 169.318 32.4407L169.432 32.4678L173.409 32.4678L173.409 31.4678Q173.409 30.8392 173.545 30.2419Q173.651 29.7802 173.838 29.3372Q174.032 28.8803 174.299 28.4719Q174.606 28.0022 175.012 27.5967Q175.42 27.1891 175.892 26.8806Q176.298 26.6152 176.753 26.4231Q177.196 26.2353 177.659 26.1295Q178.255 25.9932 178.883 25.9932Q179.642 25.9932 180.366 25.833Q180.968 25.6996 181.546 25.4553Q182.126 25.21 182.643 24.8691Q183.22 24.4889 183.719 23.99Q184.218 23.4912 184.598 22.9142Q184.939 22.3969 185.184 21.8167Q185.428 21.2393 185.562 20.6375Q185.722 19.9135 185.722 19.1541L185.722 16.0957Q185.722 15.3671 185.442 14.7694Q185.373 14.6217 185.287 14.4819Q185.242 14.4085 185.192 14.3381Q184.817 13.8053 184.198 13.4443Q183.209 12.8674 181.615 12.7546L181.58 12.7522L178.367 12.7522Q177.543 12.7522 176.702 12.8645Q175.681 13.001 174.873 13.2778Q173.83 13.635 173.212 14.2097Q172.817 14.5779 172.602 15.0276Q172.504 15.2315 172.446 15.4461Q172.362 15.7595 172.362 16.0957ZM175.651 19.0349L179.082 19.0349L179.082 20.0281L176.182 20.0281C176.012 20.0281 175.841 20.0303 175.67 20.0349C171.445 20.1483 167.205 21.6902 167.205 25.9067C167.205 29.9106 168.767 31.2825 169.549 31.4678L172.409 31.4678C172.409 27.8921 175.307 24.9932 178.883 24.9932C182.108 24.9932 184.722 22.3789 184.722 19.1541L184.722 16.0957C184.722 14.3479 183.041 13.8579 181.544 13.7522L178.367 13.7522C176.587 13.7522 173.362 14.2288 173.362 16.0957L173.362 19.0349L175.651 19.0349ZM175.984 16.3738C175.984 16.7246 175.699 17.0093 175.348 17.0093C174.997 17.0093 174.712 16.7246 174.712 16.3738C174.712 16.0227 174.997 15.738 175.348 15.738C175.699 15.738 175.984 16.0227 175.984 16.3738ZM175.208 16.036Q175.272 16.0093 175.348 16.0093Q175.424 16.0093 175.488 16.036Q175.552 16.0627 175.606 16.116Q175.659 16.1691 175.686 16.2332Q175.712 16.2979 175.712 16.3738Q175.712 16.4491 175.686 16.5135Q175.659 16.5779 175.606 16.6313Q175.552 16.685 175.488 16.7116Q175.423 16.7382 175.348 16.738Q175.272 16.738 175.208 16.7113Q175.144 16.6847 175.09 16.6313Q175.037 16.5779 175.01 16.5135Q174.984 16.4491 174.984 16.3738Q174.984 16.2979 175.01 16.2332Q175.037 16.1691 175.09 16.116Q175.144 16.0626 175.208 16.036Z" clip-rule="evenodd" fill="#1A2E35" fill-opacity="1.000000" fill-rule="evenodd"/>
	<rect id="Rectangle 289" x="14.781189" y="82.912354" rx="1.000000" width="17.625641" height="3.776922" fill="#FFFFFF" fill-opacity="1.000000"/>
	<rect id="Rectangle 289" x="14.281189" y="82.412354" rx="1.000000" width="18.625641" height="4.776922" stroke="#1A2E35" stroke-opacity="1.000000" stroke-width="1.000000"/>
	<rect id="Rectangle 290" x="14.781189" y="90.466309" rx="1.000000" width="17.625641" height="5.035897" fill="#FFFFFF" fill-opacity="1.000000"/>
	<rect id="Rectangle 290" x="14.281189" y="89.966309" rx="1.000000" width="18.625641" height="6.035897" stroke="#1A2E35" stroke-opacity="1.000000" stroke-width="1.000000"/>
	<rect id="Rectangle 291" x="14.781189" y="99.279053" rx="1.000000" width="17.625641" height="3.776922" fill="#FFFFFF" fill-opacity="1.000000"/>
	<rect id="Rectangle 291" x="14.281189" y="98.779053" rx="1.000000" width="18.625641" height="4.776922" stroke="#1A2E35" stroke-opacity="1.000000" stroke-width="1.000000"/>
	<path id="image 1 (Traced)" d="M271.04 36.38C270.8 36.44 270.48 36.73 269.3 37.9L267.85 39.34L269.43 40.92L271.01 42.5L271.36 42.43C272.7 42.16 274.06 43.54 273.78 44.88L273.7 45.25L275.19 46.75L276.69 48.25L277.23 48.21C278.21 48.14 278.93 48.54 279.35 49.39C279.68 50.06 279.68 50.59 279.35 51.26C278.57 52.85 276.35 52.86 275.57 51.27C275.38 50.89 275.34 50.71 275.34 50.35C275.34 50.1 275.37 49.81 275.41 49.7C275.48 49.53 275.41 49.44 274.08 48.11L272.67 46.7L272.67 50.44L272.67 54.17L273.04 54.48C274.21 55.5 274.03 57.25 272.66 57.98C272.26 58.19 272.13 58.23 271.69 58.22C270.82 58.22 270.13 57.79 269.76 57C269.31 56.04 269.63 54.88 270.5 54.34L270.86 54.11L270.86 50.33L270.86 46.54L270.5 46.31C270.1 46.06 269.74 45.56 269.62 45.11C269.54 44.82 269.56 44.05 269.65 43.84C269.69 43.76 269.24 43.26 268.14 42.17L266.58 40.61L262.24 44.96L257.9 49.31L257.81 49.73C257.69 50.28 257.79 50.77 258.13 51.23C258.57 51.83 270.53 63.68 270.87 63.86C271.24 64.05 271.83 64.08 272.27 63.93C272.51 63.85 273.69 62.72 278.86 57.55C283.69 52.74 285.19 51.19 285.3 50.94C285.51 50.49 285.51 49.85 285.29 49.42C285.07 48.98 272.76 36.66 272.36 36.48C272.01 36.32 271.42 36.28 271.04 36.38Z" fill="#FFFFFF" fill-opacity="1.000000" fill-rule="evenodd"/>
	<path id="image 1 (Traced)" d="M271.04 36.38C270.8 36.44 270.48 36.73 269.3 37.9L268.56 38.63L267.85 39.34L267.85 39.34L267.85 39.34L268.56 40.04L269.43 40.92L271.01 42.5L271.36 42.43C272.7 42.16 274.06 43.54 273.78 44.88L273.7 45.25L275.19 46.75L276.69 48.25L277.23 48.21C278.21 48.14 278.93 48.54 279.35 49.39C279.68 50.06 279.68 50.59 279.35 51.26C278.57 52.85 276.35 52.86 275.57 51.27C275.38 50.89 275.34 50.71 275.34 50.35C275.34 50.1 275.37 49.81 275.41 49.7C275.48 49.53 275.41 49.44 274.08 48.11L273.67 47.7L272.67 46.7L272.67 50.44L272.67 54.17L273.04 54.48C274.21 55.5 274.03 57.25 272.66 57.98C272.26 58.19 272.13 58.23 271.69 58.22C270.82 58.22 270.13 57.79 269.76 57C269.31 56.04 269.63 54.88 270.5 54.34L270.86 54.11L270.86 46.54L270.5 46.31C270.1 46.06 269.74 45.56 269.62 45.11C269.54 44.82 269.56 44.05 269.65 43.84C269.69 43.76 269.24 43.26 268.14 42.17L267.29 41.32L266.58 40.61L265.87 41.32L262.24 44.96L257.9 49.31L257.81 49.73C257.69 50.28 257.79 50.77 258.13 51.23C258.57 51.83 270.53 63.68 270.87 63.86C271.24 64.05 271.83 64.08 272.27 63.93C272.51 63.85 273.69 62.72 278.86 57.55C283.69 52.74 285.19 51.19 285.3 50.94C285.51 50.49 285.51 49.85 285.29 49.42C285.07 48.98 272.76 36.66 272.36 36.48C272.01 36.32 271.42 36.28 271.04 36.38ZM258.81 49.81L258.78 49.94Q258.75 50.1 258.77 50.24Q258.8 50.45 258.94 50.64Q259.22 51.02 265.24 56.99Q271.21 62.91 271.33 62.97Q271.34 62.98 271.36 62.98Q271.61 63.1 271.96 62.98Q272.02 62.96 278.15 56.85Q284.32 50.69 284.4 50.53Q284.49 50.32 284.47 50.12Q284.46 49.99 284.4 49.87Q284.3 49.68 278.18 43.56Q272.08 37.45 271.94 37.39Q271.82 37.33 271.69 37.32Q271.5 37.29 271.3 37.34Q271.27 37.35 270 38.61L270 38.61L269.27 39.34L270.14 40.21L271.34 41.42Q271.88 41.34 272.37 41.45Q273.19 41.64 273.89 42.35Q274.59 43.05 274.76 43.87Q274.87 44.38 274.79 44.93L275.9 46.05L277.07 47.22L277.16 47.22Q278.27 47.13 279.06 47.6Q279.8 48.04 280.25 48.95Q280.58 49.64 280.59 50.32Q280.59 51.01 280.25 51.7Q279.81 52.6 279.08 53.04Q278.4 53.46 277.46 53.46Q276.51 53.46 275.83 53.04Q275.11 52.61 274.67 51.71Q274.35 51.08 274.34 50.43Q274.34 50.39 274.34 50.34Q274.34 50.06 274.37 49.83Q274.15 49.6 273.67 49.12L273.67 50.44L273.67 53.71L273.69 53.73Q274.39 54.33 274.65 55.08Q274.87 55.71 274.79 56.44Q274.72 57.18 274.36 57.75Q273.94 58.43 273.14 58.86Q272.72 59.08 272.28 59.17Q271.99 59.23 271.69 59.22Q270.69 59.22 269.99 58.77Q269.28 58.32 268.86 57.43Q268.25 56.14 268.56 55.13Q268.84 54.23 269.86 53.56L269.86 47.09Q269.39 46.76 269.09 46.32Q268.79 45.9 268.65 45.37Q268.46 44.65 268.56 44.04Q268.22 43.66 267.43 42.88L266.58 42.02L262.95 45.67L258.81 49.81ZM274.44 49.46Q274.46 49.4 274.48 49.34Q274.46 49.4 274.44 49.46Z" fill="#1A2E35" fill-opacity="1.000000" fill-rule="evenodd"/>
</svg>
